<mxfile host="app.diagrams.net" modified="2024-07-09T07:25:04.952Z" agent="Mozilla/5.0 (Macintosh; Intel Mac OS X 10_15_7) AppleWebKit/605.1.15 (KHTML, like Gecko) Version/17.3.1 Safari/605.1.15" etag="eTZwqsKqzRcTTeF-WEyI" version="24.6.4" type="github">
  <diagram name="Page-1" id="jDQk1HcbpJpowx_lAWOB">
    <mxGraphModel dx="1339" dy="2711" grid="1" gridSize="10" guides="1" tooltips="1" connect="1" arrows="1" fold="1" page="1" pageScale="1" pageWidth="850" pageHeight="1100" math="0" shadow="0">
      <root>
        <mxCell id="0" />
        <mxCell id="1" parent="0" />
        <mxCell id="0z4CHhuE8rUwhNeHswg4-2" value="" style="shape=image;verticalLabelPosition=bottom;labelBackgroundColor=default;verticalAlign=top;aspect=fixed;imageAspect=0;image=data:image/jpeg,/9j/4AAQSkZJRgABAQEAqACoAAD/4gHbSUNDX1BST0ZJTEUAAQEAAAHLAAAAAAJAAABtbnRyUkdCIFhZWiAAAAAAAAAAAAAAAABhY3NwAAAAAAAAAAAAAAAAAAAAAAAAAAAAAAAAAAAAAQAA9tYAAQAAAADTLVF0BQ8AAAAAAAAAAAAAAAAAAAAAAAAAAAAAAAAAAAAAAAAAAAAAAAAAAAAAAAAAAAAAAAlyWFlaAAAA8AAAABRnWFlaAAABBAAAABRiWFlaAAABGAAAABR3dHB0AAABLAAAABRjcHJ0AAABQAAAAAxyVFJDAAABTAAAACBnVFJDAAABTAAAACBiVFJDAAABTAAAACBkZXNjAAABbAAAAF9YWVogAAAAAAAAb58AADj0AAADkVhZWiAAAAAAAABilgAAt4cAABjcWFlaIAAAAAAAACShAAAPhQAAttNYWVogAAAAAAAA808AAQAAAAEWwnRleHQAAAAATi9BAHBhcmEAAAAAAAMAAAACZmYAAPKnAAANWQAAE9AAAApbZGVzYwAAAAAAAAAFc1JHQgAAAAAAAAAAAAAAAAAAAAAAAAAAAAAAAAAAAAAAAAAAAAAAAAAAAAAAAAAAAAAAAAAAAAAAAAAAAAAAAAAAAAAAAAAAAAAAAAAAAAAAAAD/2wBDAAQDAwQDAwQEAwQFBAQFBgoHBgYGBg0JCggKDw0QEA8NDw4RExgUERIXEg4PFRwVFxkZGxsbEBQdHx0aHxgaGxr/2wBDAQQFBQYFBgwHBwwaEQ8RGhoaGhoaGhoaGhoaGhoaGhoaGhoaGhoaGhoaGhoaGhoaGhoaGhoaGhoaGhoaGhoaGhr/wgARCAQqBQADASIAAhEBAxEB/8QAHAABAAMAAwEBAAAAAAAAAAAAAAUGBwIDBAEI/8QAFAEBAAAAAAAAAAAAAAAAAAAAAP/aAAwDAQACEAMQAAAB38ACP9f5IP14jpEAAHSeWQ/If6rJEAAAAAEN64OSJgAAAAAAAAAAAAAAAAAAAAAAAAAAAAAAAAAAAAAAAAAAAAAAAAAAACo27PjQQAADpM19+Oe8/SrhzAAAFWtH5kNmu35Q/VpyAABRsc/Tefnm0oAAFIu/w/Meo+rQT6AAAAACqyUbJEwAAAAAAAAAAAAAAAAAAAAAAAAAAAAAAAAAAAAAAAAAAAAAAAAAAABn2g58aCAABx5CpSUfJEx9AAADrqlvhSuXetWsAAAZ/oGfGggAAAz3Qs+0EAAAAAAqslGyRMAAAAAAAAAAAAAAAAAAAAAAAAAAAAAAAAAAAAAAAAAAAAAAAAAAAAZ9oOfGggAAAqklGyRMgAAAQs1Ckda6pawAABn2g58aCAAADPdCz3QgAAAAACqyUbIkyAAAAAAAAAAAAAAAAAAAAAAAAAAAAAAAAAAAAAAAAAAAAAAAAAAABn2g58aCAAACqSUbJEyAAABCzUKR1rqlrAAAGfaDnxoIAAAM90LPdCAAAAAAKtIR0iTIAAAAAAAAAAAAAAAAAAAAAAAAAAAAAAAAAAAAAAAAAAAAAAAAAAAGfaDnxoIAAAKpJRskTIAAAELNQpHWuqWsAAAZ9oOfGggAAAz3Qs+0EAAAAAAq0hHyBMgAAAAAAAAAAAAAAAAAAAAAAAAAAAAAAAAAAAAAAAAAAAAAAAAAAAZ9oOfGggAAAqklGyRMgAAAQs1Ckda6pawAABn2g5+aAAAADPdCz3QgAAAAACre/wAHvJoAAAAAAAAAAAAAAAAAAAAAAAAAAAAAAAAAAAAAAAAAAAAAAAAAAADPtBz40EAAAFUko2SJkAAACFmoUjrXVLWAAAM+0HPzQAAAAZ7oWe6EAAAAAAVb3+D3k0AAAAAAAAAAAAAAAAAAAAAAAAAAAAAAAAAAAAAAAAAAAAAAAAAAABn2g58aCAAACqSUbJEyAAABCzUKR1rqlrAAAGfaDnxoIAAAM90LPdCAAAAAAKt7/lLNPZ0NFh6lFk7esu6TWWMew1tk0YbYolJNxZj7y/sl4Gusk4GvMv8AhqLGZE1VgFuNRY9wNkYhNmqMY6DbmVSBorOhorOhorOhorOhorOhorOhorOhorOhorOhorOuk0t8+gAB4c9NQZ0NFZ13nskKtGGvMEt5pjEZM1tlneaYwTXSeZJ4jaGUfDWGI6CW1iMsawxP2mvsMmDW2SQxujM68bawy4mhM6Gis6Gis6Gis6Gis6Gis6Gi5919poAAAAKpJRskTIAAAELNQpHWuqWsAAAZ9oOfGggAAAz3Qs90IAAAAAAAAY5sfUY16td+mTz18FGgdXGU8tUFI9lrFQruojMpq5jIJDTxlfu0YZB6tVGbzdtGW92mCleTQBW7IAAAAAAAAADP9Az8v/359AAImLlIstQEZJ8TFfDu/wAMhtV4GXSt8GXdeqjI9JkxT4PTBmMzdRk/fqIyf2aYMt+6iMfsl8FRrGqimQWoDPtA+gAAAAAAAAAACqSUbJEyAAABCzUKR1rqlrAAAGfaDnxoIAAAM90LPdCAAAAAAAAAAAAAAAAAAAAAAAAAAAAAAAAGf6Bn5f8A78+gAETFykWWoAAAAAAAAAAAAAAAAAAAAAAAAAAFUko2SJkAAACFmoUjrXVLWAAAM+0HPzQAAAAZ7oWe6EAAAAAAAAAAAAAAAAAAAAAAAAAAAAAAAAM/0DPy/wD359AAImLlIotYAAAAAAAAAAAAAAAAAAAAAAAAAAKpJRskTIAAAELNQpHWuqWsAAAZ9oOfGggAAAz3Qs90IAAAAAAAAAAAAAAAAAAAAAAAAAAAAAAAAZ/oGfl/+/PoABExUrFFrAAAAAAAAAAAAAAAAAAAAAAAAAABVJKNkiZAAAAhZqFI611S1gAADPtBz80AAAAGe6FnuhAAAAAAAAAAAAAAAAAAAAAAAAAAAAAAAADP9Az8v/359AAImKlYotYAAAAAAAAAAAAAAAAAAAAAAAAAAKpJRskTIAAAELNQpHWuqWsAAAZ9oOfGggAAAzzQ890IAAAAAAAAAAAAAAAAAAAAAAAAAAAAAAAAZ/oGfl/+/PoABExUtElrAAAAAAAAAAAAAAAAAAAAAAAAAABVJKNkiZAAAAhZqFI611S1gAADPtBz40EAAAGe6FnuhAAAAAAAAAAAAAAAAAAAAAAAAAAAAAAAADP9Az8v/wB+fQACKiZWKLWAAAAAAAAAAAAAAAAAAAAAAAAAACqSUbJEyAAABCzUKR1rqlrAAAGfaDnxoIAAAM90LPdCAAAAAAAAAAAAAAAAAAAAAAAAAAAAAAAAK3QNZ/GB+n71Qb8AOHPiQMXi8Ufqvu6+wAAAAAAAAAAAAAAAAAAAAAAAAAAqklGyRMgAAAQs1Ckda6pawAABn2g58aCAAADPNDzzQwAAAAAAAAAAAAAAAAAAAAAAAAAAAB8pkeaEz4aCz4aCz4aDRvONA+58NBZ8NBZ8PdF9w0Fnw0Fnw0Fnw0Fnw0L7nntLsAAAAAAAAAAAAAAAAAAAAACqSUbJEyAAABCzUKR1rqlrAAAGfaDnxoIAAAM80PPNDAAAAAAAAAAAAAAAAAAAAAAAAAAAELNUY9Vv8nrAAAAAAAAAAAAFVtXSQ0/Qr6AAAAAAAAAAAAAAAAAAAAAVSSjZImQAAAIWahSOtdUtYAAAz7Qc+NBAAABnmh55HmpsslS/Kd3lqZ3OFoUb1luVHrLkrXIsaIgS6ofzlgU6NNDV3gWVW+RYkLBl2RUqAAAAAAAAAAAAAAKLeqKXD1eX1AAAAAAAAAAAADp7uko9+oN+AAAAAAB5j0st4mqKB6y6Kp4S8qR2lyVXyl0U6TJ5CfCcUC6nqVH6W1QbETioe8sCG6ydZ/eD0AqklGyRMgAAAQs1Ckda6pawAABn2g58aCAAADPIiYvxkFX/AEP0GGejbx+crpqfaZFW/wBCDDPRqP0xzt3fgYL83ziUOH1qFMyru3SRiHq2rkYJ83zrMH57xwKRoHDmAAAAAAAAAAAAAAKLeqKXD1eX1BwoJoLGNALOg4cuiL6SaUSfJxCVo0Blt+JRCdhLqxxLSi/KTyE6SwqvaB093SUe/UK+gAAAAADy+r4ZRWt6+H58923cjCOnf+kzmo72MK9W0xRisxqUyfn2S2nuPzttE36DGY3Xfph9i1/vPz9L7TyPzzKbX3n513CT9R9BVJKNkiZAAAAhZqFI611S1gAADPtBz40EAAAFPsnsACsWfNic8VN+Gk+KrwptVQzz1mkcM68po3px6zl26KnIE3J4pZC/x8JUTfPTBToBVoTRBnbRBnbRBnbRBnbRBnbRBnbRBnbRBnbRBnbRBnbRBnbRBnbRBnbRBnbRBndY2uilw9Xl9Rw/OX6OqZTfdaaOQXVb/YUyS0fsKH4NL8Jk03pdMK9HTt3Mvrv6C6Sn1+6fDw1e5RBSZvUORnW2QM8Ort6TGbR3X4ztogztogztogztogztogztogzv13kAAQMXFxxPTGadRfrHmdRNa9NGrZq/iqNSNx8lI6y3eqGo5sHgzS3E1YsZ0Iu4HDmM+4aIMy0P1AAAABCzUKR1rqlrAAAGfaDnxoIAAAAAHR3jo8UoPJ99QjeEqPF89wjOUiPH3dwivV6x5vvoHDmAAAAAAAAAAAAAAAACjXmilw9Xl9QAAAAA48hx5AAAAAA6e7pKPfqDfgAAAAAAAADod4i/R7B5/HKCM7/YI/qlR4HvHR5JIeHv7x5+faAAAAAAAAELNQpHWuqWsAAAZ9oOfGggAAAAAAAAAAAAAAAAAAAAAAAAAAAAAAAUW9UstXqj5AAAAAAAAAAAAAdPd5CmX6j3gAAAAAAAAAAAAAAAAAAAAAAAAAAQs1Ckda6pawAABn2g58aCAAAAAAAAAAAAAAAAAAAAAAAAAAAAAAAB5vSM30XwU80JnY0RnY0RnY0T5mMea+zsaIzsaIzsaIxyfNEZ2NEZ2NEZ2NEZ2NCzvstx6PYAAAAAAAAAAAAAAAAAAAAAAAAAACFmoUjrXVLWAAAM+0HPjQQAAAAAAAAAAAAAAAAAAAAAAAAAAAAAAAAAAAARkFPQJcAAAZ7oWe6EAAAAAAAAAAAAAAAAAAAAAAAAAAAAAAAAIWahSOtdUtYAAAz7Qc+NBAAAAAAAAAAAAAAAAAAAAAAAAAAAAAAAAAAAABHQFgr5cAAAZ7oWe6EAAAAAAAAAAAAAAAAAAAAAAAAAAAAAAAAIWahSOtdUtYAAAz/QM+NBAAAAAAAAAAAAAAAAAAAAAAAAAAAAAAAAAAAABH16xVsuYAAM90LPdCAAAAAAAAAAAAAAAAAAAAAAAAAAAAAAAAELNQpHWuqWsAAAZ9oOfmgAAAAAAAAAAAAAAAAAAAAAAAAAAAAAAAAAAAAA8Nas1YLoAADPdCz3QgAAAAAAAAAAAAAAAAAAAAAAAAAAAAAAABCzUKR1rqlrAAAGfaDnxoIAAAAAAAAAAAAAAAAAAAAAAAAAAAAAAAAAAAAPHVrTVC7gAAz3Qs80MAAAAAAAAAAAAAAAAAAAAAAAAAAAAAAAAQs1Ckda6pawAABn2g58aCAAAAAAAAAAAAAAAAAAAAAAAAADqzyUlhN4x4TdfuKdZt33AbWan8xDwG/fcrqhv33DvabIwfvNw5fnzWC0/ch7zV/mH/DcerIORsnGj1A2fljfM1/7jXMsGhYD2G8skp5+jPmRec2VjHiN1+Y55zbPuF280P7lEKbhzxnXDv8AuJek2RiPSboxUbX8y6pG/sG10nQAAAAAAAAAAAAAAAAAAAIWahSOtdUtYAAAz7Qc+NBAAAAAAAAAAAAAAAAAAAAAAAAAB5890oU3stwxO53XsMzi9gGRSmkipx19Gfy9pGY2O1jN7pKCu+C4ipLaM77LzVyR8lpGcd+gCtVTUBhtvaGUDwacM6778K5DXwZzYLMKt32IVyOugza2Tox7jsfwzmXuApny6DMvZoIzi8e8AAAAAAAAAAAAAAAAAAAAIWahSOtdUtYAAAz7Qc+NBAAAAAAAAAAAAAAAAAAAAAAAAAAAAAAAAAAAAB0Uy6UovYAAM80PPNDAAAAAAAAAAAAAAAAAAAAAAAAAAAAAAAAELNQpHWuqWsAAAZ9oOfGggAAAAAAAAAAAAAAAAAAAAAAAAAAAAAAAAAAAA6aTd6OX0AAGeaHnmhgAAAAAAAAAAAAAAAAAAAAAAAAAAAAAAACFmoUjrXVLWAAAM+0HPjQQAAAAAAAAAAAAAAAAAAAAAAAAAAAAAAAAAAAAddFvdEL8AADPNDzzQwAAAAAAAAAAAAAAAAAAAAAAAAAAAAAAABCzUKR1rqlrAAAGfaDnxoIAAAAAAAAAAAAAAAAAAAAAAAAAAAAAAAAAAAAONCv1ANAAABnmh55oYAAAAAAAAAAAAAAAAAAAAAAAAAAAAAAAAhZqFI611S1gAADPtBz80AAAAAAAAAAAAAAAAAAAAAAAAAAAAAAAAAAAAAHzP4XPj9N/a9YQAZee3QvzPtZbgAAAAAAAAAAAAAAAAAAAAAAAAAAAAAAAIWahSOtdUtYAAAz7Qc+NBAAAAAAAAAAAAAAAAAAAAAAAAAAAAAAAAAAAAeKAOf552+MNR5Z8NBZ9xNDhatyMG/W+Z+40Fnv00FUp494AAAAAAAAAAAAAAAAAAAAAAAAAAAAAELNQpHWuqWsAAAZ9oOfGggAAAAAAAAAAAAAAAAAAAAAAAAAAAAAAAAAeeBgTv8979RSLDLDhy+gAAAD585CKr91GXSV/8x89WezJaQAAAAAAAAAAAAAAAAAAAAAAAAAAAIWahSOtdUtYAAAz/QM+NBAAAAAAAAAAAAAAAAAAAAAAAAAAAAAAAAABm2k4ZuBzAAAAAAAAAAzfRcRNv5cOYAAAAAAAAAAAAAAAAAAAAAAAAAAAhZqFI611S1gAADPtBz40EAAAAAAAAAAAAAAAAAAAAAAAAAAAAAAAAAGW+jv0MqtohKyaGzv1l5VyZPU4fTkAA4/Dm80MWJRvIaFWYOylU8+pZ8X7nw5gAAAAAAAAAAAAAAAAAAAAAAAAAACFmoUjrXVLWAAAM/0DPjQQAAAAAAAAAAAAAAAAAAAAAAAAAAAAAAAAAZ3omeaGAPL6hAQ14FB46AM946IM75aEM/8At/FGmbAPL6gAZ9oOfF+58OYAAAAAAAAAAAAAAAAAAAAAAAAAAAhZqFI611S1gAADP9Az40EAAAAAAAAAAAAAAAAAAAAAAAAAAAAAAAAAGd6JneiAAAAAAAAAADPtBz4v3PhzAAAAAAAAAAAAAAAAAAAAAAAAAAAELNQpHWuqWsAAAZ9oOfGggAAAAAAAAAAAAAAAAAAAAAAAAAAAAAAAAAzzQ880MgoSCsJavVjUkamyfxmyK5RzW2SdpqzFbCaSxGSNcZdCm1sz8JrTJbaW3PtBz4v3PhzAAAAAAAAAAAAAAAAAAAAAAAAAAAELNQpHWuqWsAAAZ9oOfmgAAAAAAAAAAAAAAAAAAAAAAAAAAAAAAAAAAzvRM70QzWzWMYh7di+GZ1jc/p+e5na/hhEvsPw/Pnp3sfm3S9G+md0H9BfDL+rVfpgukXIfc+0HPi/c+HMAAAAAAAAAAAAAAAAAAAAAAAAAAAQs1Ckda6pawAABn2g58aCAAAAAAAAAAAAAAAAAAAAAAAAAAAAAAAAADO9EzO/ntAAAAAAAAAAz67Z4aXz+fQAAAAAAAAAAAAAAAAAAAAAAAAAABCzUKR1rqlrAAAGfaDnxoIAAAAAAAAAAAAAAAAAAAAAAAAAAAAAAAAAOuh6AM+t/sqZcmd8jQlDkS1oP3HudXI5uHE7Xi8JNqpHl7Z7xLnUPZbSi3ztAAAAAAAAAAAAAAAAAAAAAAAAAAAACFmoUjrXVLWAAAM+0HPjQQAAAAAAAAAAAAAAAAAAAAAAAAAAAAAAAAAAAAdNdtFfIbu99kKH1aCM+7L6MdvkFoZDyPePn0AAAAAAAAAAAAAAAAAAAAAAAAAAAAAAELNQpHWuqWsAAAZ9oOfGggAAAAAAAAAAAAAAAAAAAAAAAAAAAAAAAAAAAAV+wV867JW7IAAZ5oeeaGAAAAAAAAAAAAAAAAAAAAAAAAAAAAAAAAIWahSOtdUtYAAAz7Qc+NBAAAAAAAAAAAAAAAAAAAAAAAAAAAAAAAAAAAAAr9gr512St2QAAzzQ880MAAAAAAAAAAAAAAAAAAAAAAAAAAAAAAAAQs1Ckda6pawAABn2g58aCAAAAAAAAAAAAAAAAAAAAAAAAAAAAAAAAAAAABX7BXzrslbsgABnmh55oYAAAAAAAAAAAAAAAAAAAAAAAAAAAAAAAAhZqFI611S1gAADPtBz40EAAAAAAAAAAAAAAAAAAAAAAAAAAAAAAAAAAAACv2CvnXZK3ZAADPNDzzQwAAAAAAAAAAAAAAAAAAAAAAAAAAAAAAABCzUKR1rqlrAAAGfaDnxoIAAAAAAAAAAAAAAAAAAAAAAAAAAAAAAAAOqP9WOmy+ij+E0ZlF9JpmPM0uPpvjL7I5xbyYZb6jSGXyZ06H+fdBNBZ14DVGe+E1BmemAAAAAAAAAAAAAAAAAAAAAAAAAAAAACFmoUjrXVLWAAAM+0HPjQQAAAAAAAAAAAAAAAAAAAAAAAAAAAAAAAAM+0EZU1UZtYrOM9qm2jI/dp0eY77NVkTDJjWxgsltA/LWxNDM5qO6DN6xt4yTWvoAAAAAAAAAAAAAAAAAAAAAAAAAAAAAQs1Ckda6pawAABn2g58aCAAAAAAAAAAAAAAAAAAAAAAAAAAAAAAAAAAAABX7BXzhY65YwADPNDzzQwAAAAAAAAAAAAAAAAAAAAAAAAAAAAAAABCzUKR1rqlrAAAGfaDnxoIAAAAAAAAAAAAAAAAAAAAAAAAAAAAAAAAAAAAFfsFfOFjrljAAM80PPNDAAAAAAAAAAAAAAAAAAAAAAAAAAAAAAAAELNQpHWuqWsAAAZ9oOfGggAAAAAAAAAAAAAAAAAAAAAAAAAAAAAAAAAAAAV+wV84WOuWMAAzzQ880MAAAAAAAAAAAAAAAAAAAAAAAAAAAAAAAAQs1Ckda6pawAABn2g58aCAAAAAAAAAAAAAAAAAAAAAAAAAAAAAAAAAAAABX5+AOFjrdjPoB5yiaHnl7PQAAAAAAAAAAAAAAAAAAAAAAAAAAAAAAABCzUKR1rqlrAAAGfaDnxoIAAAAAAAAAAAAAAAAAAAAAAAAAAAAAAAADpqBdWffDQmfDQWfC+fnXTssO39FfnDUjQmejQslmPOfnv8AUv53280Jnw0Fnv00Fnw0Fnw0FSLgd4AAAAAAAAAAAAAAAAAAAAAAAAAAELNQpHWuqWsAAAZ9oOfGggAAAAAAAAAAAAAAAAAAAAAAAAAAAAAAAdfZUSBvvRLHBzHBzHBzHDp9I83dzHBzHBzHX95jg5jg5jg5jg5jw0LS449fdTLmAAAAAAAAAAAAAAAAAAAAAAAAAAIWahSOtdUtYAAAz7Qc+NBAAAAAAAAAAAAAAAAAAAAAAAAAAAAAAAAo15opcPV5fUAAAAAAAAAAAAOnu6Sj36g34AAAAAAAAAAAAAAAAAAAAAAAAAAQs1Ckda6pawAABn+gZ8aCAAAAA+dZ2vn0AAAAAAAAAAAAAAAAAAAAAAAAAUW9UUuHq8vqAB5j0o2SAAAAAAAAAHT3dJR79Qb8AAAAAAAAHVzOQAAAAAAAAAAAAAAAAELNQpHWuqWsAAAZhp/UUpcBT1wFPXAU9cBT1wFEpOu0w805HVws9hzH3Fz8EJLlm8GXXEmfDyzo0O7UrRigc6RDmpR1Yt56OqMqRd7Hm/mLvxr8UW+Zyz6a1G0aPNQ8ed2Isy4CnrgKf9t4p64CnrgKf9t4p64CnrgKeuAp64CnrgKf9t4p9V1qkF39Xl9QAzTS8dOXzz100GHmB4fL11stFkp0cWTw+ytF/jK/5DRY6neIunOJ7SyaFlmpgDp7ukx+2eS9lPXAVD5cBT1wFPXAU9cBT1wFPXAU/hc+oxWY7Z48/OhTBde/PfYSlop1fNRh47vOr1ZhoRdIi25KWTpzn6aB7fJ5yQjIDyGpRufTRL+2g+ku8ziNgNA8FE8hpikbIVFcBT1wFPXAU+J0YQFp48gAAAAAAAAD4+j5x5jrqtuHDl9HH79HzjzHz6HD7yHH79HGHmh5PTyHzjzHBzEZI8hx+/QAAAAAAAAAAAAot6oxb/V5fUAOPIcfnMfH0cK9ZB5vR9Hzh2Dh95DrjpUfH0fPoAOnu6Sj36g34AAAAAAAA+fQ4OYqti9A+fOQ+Po6+f0OHMcXIfPnIR/TLD4+jr+8xw8EkOLkPn0AAAAAAAAAAAAAAAAAAAAAAAAAAAAAAAAAAAAAAAAAFGvNGLf6vL6gAAAAAAAAAAAB093SUe/UG/AAAAAAAAAAAAAAAAAAAAAAAAAAAAAAAAAAAAAAAAAAAAAAAAAAAAAAAAAAAAAAAACuWP4VyyZ/6i7KkLaqXwtyoi3KkLaqXwtyoi3Kl8LcqItyoi3KkLaqItyoi3QMR4SbtHHkAAAAAAAAAAAAAAAAAAAAAAAAAAAAAAAAAAAAAAAAAAAAAAAAAAAAAAAAAAAAAAAAAPB7xEJcRCXEQlxEJcRCXEQlxEJcRCXEQlxEJcRCXEQlxHyAAAAAAAAAAAAAAAAAAAAAAAAAAAAAAAf/xAAxEAABAgUBBwQDAQADAQEBAAAEAwUAAQIGNTAREhQVFjZgEyA0UBAzQDIhMXAlIiP/2gAIAQEAAQUC9tZqKZGhWYkmTqupdQAAa0yBfKRT11XTQu65FGVO1X6p6E0X92k0N9svfOgfepXJKhyf1FbhBLoNF9ylckk3G4FFbgBLoOF1LjwrVjfKQc771VPSTeGxxeVGNucLfMpnvU6F5OCrofah6zOfKe2XuuWkwkNSy/SKtgM1o99yUlkhqWZ6R9sBmtGrceFasb5SFnvfOW2Vxy2MjXKVTZ/1oV071JjeOG2MwKBrGkn6VHvO7i0Du6NW48K1Y3ykLPaFyYVpxui7Yy28LoHdxaB3dGrceFasb5SFntC5MK043RdsZbeF0Du4tA7ujVuPCtWN8pCz2hcmFacZou+MtvC6B3cWgd3Rq3HhWrG+Uh57QuTCtOM0XbGW3hdA/uHQO7o1bjwrTjfKQ8/oXJhWnG6LtjLbwugd3FoHd0atx4VpxnlIef0LkwrTjNF3xlt4XQO7h0Du6NW48K04zykPP6FyYVpxmi7Yy28LoHdw6B3dGrceFacZ5SJn9C5MK043Rd8ZbeF0Du4dA7ujVuPCtOM8pEz+hcmFacZou+MtvC6B/cWgd3Rq3HhGjGeUidwaFyYVpxui7Yy28LoHdxaB/dGrceEacZ5SJ3BoXJhWnGaLvjLbwugd3DoHd0atx4VoxnlIvcGhcmFacZou2MtvC6B3cWgd3Rq3HhGjGeUi9waFyYVpxui74y28LoHdw6B/dGrceEaMZ+XByQbEUrtb1VZT2y+6LuYEIhtehXX6gXuHQuTCtOM0XfGW3hdA/uLQO7o1XcWs1tGncIw/EXFHEXFHEXFDxWUoNcKdNFTusvUUi9kzYyrhmpWJcPpz54TQ0rPySwa74QtSwnr8dcxK6Kc5mNbmnJxd5LO5JTJTWa3uTPctEx3ri96h5MKCpVMZT5uhEkjzSCAmYokwlvRPXdFnNdxMTdylbdlUeCso4LlLtx7wQ3cRcUcRcUcRcUcRcUcRcUcRcUcRcUcRcUcRcUcRcUcRcUcRcUcRcUcRcUcRcUcRcUcRcUcRcUcRcUcRcUSdnYYv3GLTHGGcn8xHiLijiLijiLihFd/mqz00rPLZOpImpxJCVqe5jPHPiK0SbhmqoPcEx3E56nxnNCTKWkuswCUjXFxTeDEm2qZzESvxprnQ9koBJu9J6XFGNrgnxz6su9lKNjY5KpujiYSnM5Qxdl4kpqZU3EoOtyrKLek3Q0cCk5ZEmoi4d7iLijiLijiLijiLijiLijiLijiLijiLijiLijiLijiLijiLijiLihpCcOYaFyYVpxui7Yy28LoHdxaB/dH8Tsk4ub+7hvldAzS41KoW2bQGawzXgFi9CK7bLpbVLeOPUVtsiihoayUCXlsUcYNaaynDk7qHNO3iE6jGdQhyot904VRnchZU2usiEg0HFGSt9zTTWtslGbWzniuwLWoK6LMJgxdTCZwbgzKEKDW7LdY2+tsA/kfPne5z+BbuI/LgtWOCyhPqaEmxy4lS3nNccdmU5hVbK2wxhmtOtmc0TB7VUSU6fcB4BF4MUJqVGMnbStQPKXQ1Vsal0JVW4bQLTb5pBE2NyMWqaHIFZW2V5N6TCauV0640IUs5M2Ahn4plSY3GuoJsIpcqrcJnQTblE1P57kwrTjNF3xlt4XQO7h0D+6P4pUUyqqplVKUpSl9a+fP9zn8C3cR+ZylVKmmVMtyne+wuTCtOM0XbGW3hdA7uHQP7p8CfPn+5z+BbmI+2uTCtON0XbGW3hdA/uHQP7o8Ce/n+5z+BbmI+2uTCtOM0XfGW3hdA7uHQP7o8Ce/n+5z+BbmI+2uTCtON0XbGW3hdA7uLQP7o8Ce8h7nP4FuYj7a5MK043Rd8ZbeF0D+4dA/ujwJ7yHuc/gW5iPtrkwrTjNF2xlt4XQO7h0D+6fAnvIe5y+BbmI+2uTCtON0XbGW3hdA7uHQP7o8Cesj7nL4FuYf7a5MK04zRd8ZbeF0Du4dA/ujwJ6yPuc/gW5h/trkwrTjdF2xlt4XQO7h0D+6PAnrI+5y+BbmH+2uTCtON0XfGW3hdA/uHQP7o8Cesj7nL4FuYf7a5MK04zRd8ZbeF0D+4dA/ujwJ6yXucvgW5iPtrkwrTjdF2xlt4XQP7h0D+6PAnnJe5y+BbeH+2uTCtOM0XfGW3hdA7uHQP7o8BeXLlI5j6EcQDcaLod7Kqt2RZKRLcxLpoMqaklaftbkwrTjNF2xlt4XQO7h0D+6PASEKSUXhtUbnK02mTY2ez/uLqQJYnG3Ein06imVFP2tyYVpxui74y28LoHdw6B/dH3W2Nso2yjbKNso2yjbKNsodbdSc3CWyUtso2yjbKNso2yi5mqTs22ez8rb9so2yjbKNso2yjbKNso2yjb9dcmFacZou+MtvC6B3cOgf3T9y4u9dK0mAouXSlEdKUR0pRHSlEdKUR0pRHSlEdKUR0pRHSlEdKUR0pRHSlEdKUR0pRHSlEdKUR0pRHSlEdKUR0pRHSlEdKUR0pRE7fIFk3u6kl/rLkwrTjdF2xlt4XQO7h0D+6fuHUvggWAHhxf6n0Hiw2cvjAPq7kwrTjNF3xlt4XQO7h0D+6fuLtww3x/wCpX9Vo4v6u5MK04zRdsZbeF0D+4dA/uj7i7sMN8f8AqV/VaOL+ruTCtON0XbGW3hdA7uHQP7pDdKR3ot0pXe1rpSTVMuFEakJ8SKjqxLfcntJuoHuVJaCrhFEANfkgxwrgTMq5yjMCh4RrLOcEwEy7jSQUbnFJyRdXVNqSb39M4pS60qK5PCFRNbyjQrN5Rk3DO6JJZrkmDUbcaYy4B6Tih/dd2GG+P/Ur+q0cXrL/APCNuPSNIje6yqekbpSUUKuGhAql/GqAEuSggk246BCaLiQrFMfhgyzrhoCJouJCoEt1SEgJySOqVc0kTFbpRoVHXoKRcX6gAgR/QJEHuhNVYZzSKXlcI80SnZIWsFySOit1RTcK7qSpURWpXS/FyYVpxmi74y28LoHdw6B/dIICRb85t1CDwPOgQYxOQaQalVDgaRIlsrXocHBxlOTkgGs4NFbuJxCLoKQ7ya1uQnelS5VELrUJ0cvPtVHdTuN0G5km8iK3GUTxDekjM8tMWsUjla1NvKTQoeKVySYlLl7laiHpCf3Xdhhvj/1K/qtHF6xH6LYaxyAim6qZlNaS4xFVAryKsuG1Kko0uLXXI0wqqtBmVCrTqHfQubyJTKYzm1UVaisZIkOooskbdECYkuHapvgXUgbrRSAWsnXAQNZ7ikhXyUtvVFMSUHRmNxZh6M6EQGdL0W/8XJhWnG6LtjLbw2gf3DoH90yoplOdFM51DI111pUKRQimnEhEJRSinRV6dM49OndQaBkVa2kasn06d2pBOuJIpykoOkrFNMqJUtQ8il2kZZThUd6lKimPTpj06d2odKuJJUSkoOkrFNMqZf3XbhhvjxV/xTb7ksVSPcJZlxmvwYCwLsM4I03S3VkTcEKSlXQdFfq1t2pOwyyvNReOc7nEHoaLsGrGm4ISIm6i0mJuQ6qM34KQjfcAblWg4IExzcX0SXUYQYp6EDRCfwz1vwr+q0cXr00yojcp20jI01VoJKT9FPc4RCUqEqE5elRsURoUoDaRg0UGoccidFNUTGRqn6dMVDI1VTltkI0DCUptQ6RchEKYpTppj0qInRTOJjIznuU7Ziozr/NyYVpxui74y28LoH9w6Dsx8yJFRqQQ/Li+DtioVwimqJ3UGos4vQ7bNC5BF00FqSEV7oEQXNfhQqELgEXGGuUUitwfh29bqIaoQO5hTVFboESXNehgUArgGOUruwOiEFqSEfy5NZBqvTxsdPGx08bHTxsdPGx08bHTxsdPGx08bHTxsdPGx08bHTxsdPGx08bHTxsdPGx08bHTxsdPGx08bHTxsdPGx08bHTxsdPGx08bHTxsdPGx08bD8zkit4/x4r/yIWotWsJQFcAyaZlzJbUmf0D1WNTjU3RumYpdSoqPVr2bQ1vYwio703DD120OKL0bW4Tb1ww1UH6SpM5vKwqaGwuVxsH+qNnJDp1vjcfOaa7dUpXcv4U/WwtBJYfTxsdPGx08bHTxsdPGx08bHTxsdPGx08bHTxsdPGx08bHTxsdPGwMxlor+xzdkGukW5BSiVbpDTXNeBwhhrlFJUDLTNROuMUFZV9ESDDuEYyKLpErqcHodvkhcIxCCF1iEKl3IKKsq9CpACXIMWQvcwiKgJybgh+apbaarfMnV08bC9qrlJjIyGQ0XbGW3hdA/uHVPltud2RrVdjDwiLf2yIezZbFxDqhE3YwQkINakM81SgsmaklByz51utqVUTSZE99vFnJFu/wDyootuUvaKB/T7Ni/oruww3x4nLbJtt4VsKcWmgpdutCr0223Km9ylaCO9ycfjuVJczqakanIy3xTnBVpRVcHW2E/RZLXpWBJtwQoxdoRXOQZBkRqrTH4em00ZLV2ijNQS1p0VSYRqWtNkQTJm1IzcPwr+q0cX/HcvyntOc3oQ8Idgr/5Cc5SpeRC+EBNcBlkBp+hQ4kIuLlv0qNBh9XEW4pRztmplzQbaGRVNOllOppoewkTK0rV28q/hdsZbeF0Du4dWaVE6/RT36W4ShWkZKhSYyU4TbxUaq20RRRYRAimgNBNOhuETqWBGIrTFRRnQlQnFbaIopIZGlWaCc6vQTknTTKiX0V24Yb4+p/3EpSplqK/rtHF/x1pUKTmjRVXU3CVqcKj6s0E6qpNwlNazeKRVUKjWkiEOPLlocqlw0CYTCHRqpSooqWAGIq4RDeqRTqqpQTopoTpTl/C74y28LoHdw+A3dhhvj/1K/qtHF/bO2MtvC6B/cXgN3YYb4/8AUr+q0cX9s74y28LoH9xeA3SnNRoCUkqJ/USpJIe1U5ptf2zvjLbwugf3D4CujJdFtKmzLSqlV/TOcqYdDJuqgqFIqH2ztjLbwugf3D4EYCiclyIwaOVvccre45W9xyt7jlb3HK3uCW97RHaRXowDlb3HK3uOVvccre45W9xyt7gST2Ufyt7jlb3HK3uOVvccre45W9xyt7jlb3HK3uORnEQE3oAJfbu+MtvC6B3cXhTj8C2ML7mjP+BO2MtvC6B/cPhTh8G2ML7mjP8AgTvjLbwugf3F4Uf8K2cP7mjP+BO+MtvC6B/cXhR3w7ZxPuaM/wCBO2MtvC6B/cPhR3w7ZxXuaO4PAnfGW3hdA/uHwo34ls4z3NHcHgTtjLbwugf3D4UZ8W2sd7mjuDwJ2xlt4XQP7i8KL+LbXwPc0dweBO+MtvC6B/cPhRXxra+F7mjuDwJ2xlt4XQP7h8KK+PbPw/c0dweBO+MtvC6B/cP2iilKVE7qnXNsdUXRHepjelKNu2N6U42ylG3bG9Kcb0pRtlEqpTjbG2UbY3pS/G9KN6UbY3qYnuzkkmmnLbG9KN6Uo2xvS/DTOUrg2yiVUpxvUxtlKN6Ub9MTqlKNso3pRvSlG3bG9KUbZTjelP8AG9KNsolOU42xtlG38bZRt+rdsZbeF0D+4ftLqnXJkZ6EqG2ur0HGbf6bGiMo7vFbiS0ipzVFg5GbpcKBy7eyUVKCwYPNyepnkAtgs1AjRXpVBQZxVpE5kUS90rVOddvELkttyt3oKOdEmaK3Asp7Db+NbFVvVareWrRebpqrkGUHyokUKp7SrOXWt7g5tp7O+LCoVopuTog5EVtpA1VvmSUqmOcTIwRi3qjx2iU3wleZzmOWTJkmFMGspelZ0s1WpZtXE5lcKJKzagS31tCCSnqIcJUfJZX1WtpXUQNk+LSZE3RYY1JxWJWa7grRDLKIXGOel12Joqqqb/qXbGW3hdA/uH7RZGghLp00eB7fTHAqZJVNVLYSpcCFuJyCptsiBGJyWJb2AhJdO2yN5uZ5hkdMp1DC2+tIgRmpFhaz6FhlWROpdW2lqVQAqABnVr5nJ8YaXqldjoUUEZJCt61sz3A7eWHcXRtk5JGs8jFFbbXpUUtreoLaZFFU2sRRSE0Lc5ptZPgRrfW4mi1yUpLWvuyAt9URwTapJuhrApWXXbFVQxjRSVUGzUDLtDXJqSSapJukreTnCdtEVVunrUNwtrn0Ah26YpSlbS1BUmKmTYMw0jk1sFNSydrr7lNr0USlaSUlQx+FH+pd8ZbeF0D+4fuNymVX8K09iTESqRR7mjuDwJ2xlt4XQP7h8KW/Vbf+Pc0dweBO+MtvC6B/cPhSv67c97R3B4E74y28LoH9w+FKfrtz3tHcHgTtjLbwugf3F4Up/i3P9e5o7h8Cd8ZbeF0D+4fCq/8ANufs9zR3D4E7Yy28LoH9w+FVf5t393uaO4fAnfGW3hdA/uHwqf8A1bvyPc0dw+BO+MtvC6B/cPhdu/J9zR3D4E7Yy28LoH9w+F278z3NHcPgTvjLbwugf3D4U/PBlvnDXhw1TNJfgfZcrkayLI3lSiZb9RS4XgLtjLbwugf3D4U/tlLo22ky1FPH/XtdQKHIFjYayXymmVFPgLtjLbwugf3D4QqWghC9whIx1L60IVuiVf8A9xWOAd645O6TjkbnHI3OOTOkoSZHAVf/AO4lHMHpOOpZowjcQS0JGDr/AHzvjLbwugf3D4KsumPQtce/Xwbu4QlbI8Itgg8bstPdlCzaKRCttCwiE/A1I3F6VaBCRNH3TtjLbwugf3D4I7O1LdQOzLuNSA6Q1P8AEsgmRSSyLA1NLvS4U/cu+MtvC6B/cPgjInS4uH8z+lSAXL/mX3DtjLbwugf3D4Jb7nUA4U1Srl/JOcqZXM51HEU/5+4dsZbeF0D+4fBLfESOD9FwYoEfxCYlPbL+D/qC34QWNxwfYuAJIBqp/wA/cO+MtvC6Dh3D4Jaf6oLaBDImxmCRzB2ChO5UoSfm9eKCElI3qY2y9u2N6UVkJJwq+gIQpcyEcydTYkyGmQIzCB/i7vg0/wCfuHbGW3hdA/uHwS0/1eysdJWFWYJWFLVCrn03uRyY+mOWvUo5e/Ry9+jlr1OOTOFUdN78J2qFRNJlCSigZFL23d8Kn/P3DvjLbwugf3D4Jaf6v5rt+FT/AJ+4d8ZbeF0D+4fBLT/V/Nd3waf8/cO2MtvC6Dh3D4Jaf6v5ru+DT/n7h3xlt4XQcO4fBLT/AFQ4O4jXHVrVA69BSP8AFdvwaf8AP3DtjLbwugf3D4Jaf6ouOimt5fgx5M6Tkug0jmuLS5ElOZbug9G0NTe6jlIuRDrNSq4SlWtMxyaDpOR5JQbyUYw1Oh7Yu/ruoELHmtDbzQ9uh5PNqcA3FwRVWuRQZgt0xY5ti7vhU/5+4d8ZbeF0D+4fBLT/AFQ/IKqPD7RUo0TFJCEVLUfXNipVJNqFX5VJFMqpwO9ZOgA4UBYpS4jpJjJH0CHpMJiaFadyUqFtdxNtZ7QmiIVMaSh7/UMtzJhaSFgrZTUSbou74NP+fuHfGW3hdA/uHwS0/wBXs2Sl+dkbJT/EpSlGz8bJfnZKUbPbd3waf8/cO2MtvC6Dh3D4Jan/AAn/ADXb/wAh0/5+4d8ZbeF0HDuHwQulVicRikjEv5CCUhU0PUf3H7l2xlt4XQP7h8EropUpXY1hFE7irHqHPGK/hXOHGhW46l60WRc6tNOlKj7l2xlt4XQP7h8GUSoWpItsVSOWOoccydBYouaiKbjb5xQ8BKRSYhVElKJxvUxvSialEoqLRpit3CTiq4m6UV3NRHNHMqOXOxkIW0LRCSNCNP3bvjLbwugf3D4VWlQpDkIGOGC1hHhVW0JOJ2qNOOkx46SHiVqjShuaUVnehhBpihqCoihFNPwB2xlt4XQP7h8LfMQwYf2tHcPgTvjLbwugf3D4W+Yhgw/taO4fAnbGW3hdA/uHwt8xDBh/a0dw+BO2MtvC6B/cPhb5iGDD+1o7h8Cd8ZbeF0D+4vC3zEMGH9rR3D4E7Yy28LoH9w+FvmIYMP7WjuHwJ3xlt4XQP7h8LfMQwYf2tHcPgTvjLbwugf3D4W+Yhgw/taO4fAnbGW3hdA/uHwt8xDBh/a0dw+BO+MtvC6B/cPgSilKVPMw4SWTXp9xo3GCAi8EJ7WjuHwJ2xlt4XQP7h8CJGSLSJYwabmqWSZiabm9V5pfXVYdqNm4ASenMldO5q5tYrwaiau+OFRM7kqoHUcE+HTuA5IlV6PKIIuivg296XUMReyRnU93OTFRfCkgErjLTrNeDeOlc6tAFL24ImfeO+MtvC6B/cPgZIi9V0XSGaSTyasQ9vDITYmBFQdoZhF0akmsxNsUWLdjGwQmYprcTJtHRO4slIh2NSUMYVyWgtMEQQlVyHHKVX9Fda2imtUu3EBll5taRBDiQ2mKCLsKgzh9474y28LoH9w+Fmk8GICVxontaO4fAnbGW3hdA/uHwt8xDDiPa0dw+BO+MtvC6Dh3D4W+YhhxHtaO4fAnbGW3hdA/uHwt8xDDiPa0dw+BO2MtvC6Dh3D4W+YhhxHtaO4fAnfGW3hdA/uHwt8xDDiPa0dw+BO2MtvC6Dh3D4W+YhhxHtaO4fAnfGW3hdBw7h8LfMQw4j2tHcPgTtjLbwug4dw+FveIYcR7PXT9Rp7hoWoUn4C7Yy28LoOHcXhSlG/Q53Ca1VtlwGuk06dyj83mCtSjQ/OKqzA3cub/AXfGW3hdBw7h8CUUoRoXucRKfVo8dWjx1aPHVo8dWjx1aPHVo8XeUg7JWgUg0JdWjx1aPHVo8dWjwvc4hCTQkkG8dWjR1aPHVo8dWjx1aPHVo8dWjx1aPHVo8I3QIrNJahej7d2xlt4XQcO4fAa65J0J0KXGQOEOLTu0xu0xu0xu0xu0xu0xu0wqgmsmkgminu0xu0xu0xu0xu0xuUxu0xu0xu0xu0xu0xu0xu0xu0xu0wuGgTSsipbq6Sklk/tnfGW3hdBw7h8BuVeY7U2j0jA/1HIUkiWwtNZs+2d8ZbeF0HDuLwG7cMN8f+pX9do4v7Z2xlt4XQcO4fAbuww3x/wCpX9Vo4v7Z3xlt4XQcO4fAbuww3x/6lf1Wji/tnbGW3hdBw7h0/Uo+2u7DDfH9i66YyQRyDgj/ACK/qtHF/wAPqUxKe36R3xlt4XQfC6AXvq5sjq1sjq5sjq1sjq1sjq1sjq5sjq5sjq1sjq1sgq5wCRwW9vWb2h7qDZBLiqqIVuhROsR6oJLlcFNQyFyLVLhO6Zazu8rtkDvytYiNzK+sZcZIZIS6q6BlwLJEK3LRQ1jv1dS6lylJllP6iVUrnopERudXfSeU1Cg7oRLQEuNRQom5Vk1JPyddarvSmZXciKTOi/UqyWukZFw6tbI6tbI6tbI6ubI6tbI6tbI6tbI6ubI6ubI6tbI6tbI6tbI6ubI6tbI6tbI6tbI6ubI6ubI6tbI6tbI6tbI6ubI6tbI6tbI6tbIuG4gT24f4/suwiVdFs7Gtwk5uRRIjie7NbQa8nkcwdXchW5iZNFTi8t9I7zVW5NFyEuLkS6vAUnIxxVVbXsqdCLovXbij0TSO6XKqm7rOjgY5W45FGV+xX9dv3AE3hdXNkdWtkdWtkdWtkdWtkdXNkdWtkdWtkdXNkdWtkdWtkdWtkdXNkdXNkdWtkdXNkVXW210twQJ1TA58Gghc1c1C7kUSWGf6CCZPdNS8rpWhF4TUOdHFYGhvuBY2jqlWibjcSwE20tctNyelRSkrkoUbELkrnWbcZIS67/WOihcc4putWqil5TrMGuVAk2i51PWNf1kiKblSrDJdJDFIv6VYo9zUEBH3KgEZ1a2R1c2R1c2R1a2R1a2R1c2R1a2R1c2Q53SAsBbkpyZtCpOiuOGRjhkY4ZGOGRjhkY4ZGOGRjhkY4ZGOGRhxHT4JgYhVAbpbpzEQlIw16Nk5Jv0iG9ExPgWRyHrpIrkikbVSWpax1ZKFuEToUVeqa1TpwUvXWXVTXVbgv/8Ad4KTrncRas2Z9O3y01HKTsHMEtd8Bko1V+pxzuQtUumkRw9E3ZEp6a24gxsKoLTAQauCd+GRjhkY4ZGOGRjhkY4ZGOGRjhkY4ZGOGRjhkY4ZGOGRjhkY4ZGOGRjhkY4ZGOGRjhkY4ZGOGRjhkY4ZGOGRi60U6Gcb4/sqbufv7gzyY3CUgeNtRJZIO2ka5KgOE7cWLQWoaC3ab0ES3lrvqA6gD46lIO1J0pycW3ZQQk9UJW6YSoSyLtNQSSLVN0fLWEqDL9iv6rURTrbOGRjhkY4ZGOGRjhkY4ZGOGRjh0Y4ZGOGRjhkY4ZGOGRjhkY4ZGOGRhQdL02JlQJm/NW1oSlQXDsdSskWOQNbiNXBsBgqibIdSim8M/E1NLd66FuFVcQ3vO8uzJfqdCFJO41NXKaZSXh7TUrJepVhOZqs3ldB4pVZTBDUjxQqmp0OJk5kLkKTMRnUm1mPg5Do1gkHG1JrjsXKlUJ0jo7OGRjhkY4ZGOGRjhkY4ZGOGRjh0YlKUv55UylG5TtNZpnH7svxuy/GyNymUbPxu0zjZKNkpficpThyAkeMOhSgl+JU0yjdp27soWBRXW2Rs/ru7DDfH927L8zppqh4bOZjJJSTo/G5TtnTTVG7KNymAgEgKPer+q0cX/HuylE6KZw6tVbnUmjQknGyU/wA7lMbPxOmU42SjZL8TltgoWRIwAVIQ/wCNynbOimcbsoKBSMolKUpbPFrtww3x/wCpX9Vo4v8A8Cu3DDfH/qV/VaOL/wDArtww3x/6lf1Wji//AAJ8F4xuZDZGt/8AU8GSCAYBZit3/gZYJDYSjc4m71M1x1M1x1M1x1M1x1M1x1M1x1M1x1M1x1M1x1M1x1M1x1M1x1M1x1M1x1M1x1M1x1M1x1M1x1M1x1M1x1M1x1M1x1M1x1M1wrc4cqRgyXYiUtkv/BFAh1p8rCjlYUcrCjlYUcrCjlYUcrCjlYUcrCjlYUcrCjlYUcrCjlYUcrCjlYUcrCjlYUcrCjlYUcrCjlYUcrCjlYUJgjIz/wDXf//EABQRAQAAAAAAAAAAAAAAAAAAAMD/2gAIAQMBAT8BJ4f/xAAUEQEAAAAAAAAAAAAAAAAAAADA/9oACAECAQE/ASeH/8QARhAAAAUBAQsKBQMDAwQCAwAAAAECAwQREgUTISIwMWBxcnOSFCAyMzQ1QVBRkxAjQGGCJEJSdIGRFWJwQ1NjobHBJdHh/9oACAEBAAY/AuahhSyvq8yciiOpXzF5iyz0hBWlIKtAy6rAa0kelT0dRle05sGRQiGaeUK/kVcAM5Bp5QnpULJOP/v/AGkL45QnUnRRZBS1HQiHLWzoSFUINvtHVKy56lqzJKo5Y2o7LaqFqDb7eZZZWXsCLuy0qkasgpZ+BCXdB9N6Za6NrxIRn7F8jPljmnwBH65FUaISltx+lQN8oSpDEjAVcwqXP5Lc4qqdwLP0IR4rj3zXSqaguFMx2y6tXP5Lc9OM5gUr0EaG498x1BqNQchzMdougvwysvYEXdlpVI1ZChiXT+AikeH5ZZEyEw2WyJRtqqoRCfbJWJgMEgsxZCFqPI3P3astL2BF3ZaVSNWRl7Ai7sslL3RiLs5GFqPI3P3astL2BF3ZaVSNWRl7Ai7sslL3RiLs5GFqPI3P3astL2BF3ZaVP6sjL2BF3ZZKXujEXZyMLUeRufu1ZaXsCLuy0qf1ZGXsCLuyyUvdGIuzkYWo8jc/dqy0vYEXdlpU/qyMvYEXdlkpe6MRdnIwtR5G5+7VlpmwIm6LSp/VkZewIu7LJS90YibORhajyNz92rLS9gRN0WlT+rIy9gRd2WSl7oxF2cjC1HkbnbtWWmbAibotKntWRl7Ai7sslL3RiLs5GFqPI3P3astM2BF3ZaVPbORl7Ai7sslL3RiLs5GFqPI3O3astM3YibstKntnIy9gRd2WSl7oxF2cjC1HkbnbtWWmbsRN0WlT2zkZewIu7LJS90YibORhajyNzt2rLTNgRN0WlT2zkZewIu7LJS90Yi7ORhajyNzt2rLTNgRN0WlT2zkZewIu7LJS90Yi7ORhajyNzt2rLTNgRN0XMvso6JCG/mJNZ0TaR54bDhuG4XglNQrkpqqnPUvKHtnIy9gRd2WSl7oxF2cjC1HkbnbtWWkMNdNaaEG2Ux4xkhNM47NG4h2aNxDs0biENF0UIQ+t3MnMLnESS6ReANJzTjtpTipazmFPGs7bbtm16i5yIqlEazx6kJiJSlKUmtkRZKlmZqcw/chJvJm28lupEoRYt+Nk1JtLdIOxHXFSGi6DqgymK4bSlrpUModmKfaUmpkoSJbUtUdLajvaE+IacbXenjcvZmQQy5LU+lbBqw+AQU21btUt0wBUg5Zx4pJxL34iFHbXR+Qs03z0IIjSJBym3kGZKV4CRIVMdtoPFR4CErlJRicKqzTnE25/KnDJCaodPpCVHcug5YimR6xJSUtcVEc6Js/uEl5VUPNYpK9Rcta5i3ik9JJiZfZ5xFM9FBCO5DS2/XpKWY7NG4h2aNxDs0biHZo3EOzRuIdmjcQ7NG4h2aNxDs0biHZo3EOzRuIdmjcQ7NG4h2aNxDs0biHZo3EOzRuIdmjcQ7NG4h2aNxBlu6EdlKHDpVJ89x1OE0pqEvMxY9hWaqh2aNxDs0biHZo3EEX6PHJFcbCJyzIlWTsi6imbKFFmM8xBh3lq5ClLopH7QpqQo72acBEJbyHDsJeonULmojKURuKxxLalW1pT0bJZhFXFXVg0GpRB6WUtbSkn8tlOYw266mysywialExbKGSwEQNF8vkhTlglGIqnpSpTT6rJkrwMSkNS1MNsprQhBcdcUurppX9w43CxZFMCViOh2Yp51aqONn0SEl1iUqK0yqykk+IRVy9OpcsKUkNRuUKkIWipmvwEl856rbZ1S03mDd0mpSmVE1U0F4jlzslUhx1JWUq8BHfTKclX0yttn4BiJHkKjtm1aOyJpKdNxTTti2fgQgXq6JyL90kA7MaPZ8MYdmjcQ7NG4h2aNxDs0biHZo3EOzRuIdmjcQ7NG4h2aNxDs0biHZo3EOzRuIdmjcQclXSS2mpUIkZGXsCLuyyUvdGIuzkYWo8jc7dq+jS1DNCExCtpt+IRIkrjmTKq0SFy2ryrlJY1v9ocjuuNmS3LYgmxYQbB1V9xKv8AYWbuYwywy43fW12sOYLcnraSu92E2BGdjKbOS0VDtZjDkmcpFtWZKMxBi9KJNhZGdQw+SivaE0Mg+1c51rkzqq42chFZvieStnbX6mYRISsibS0aKDkbi4/J65/EXqE628xZpR3wDF4dSUxlZrI/AFJus4gzbSZISgPsoOMbTviZYRFciKQ4ppNDS5mDsx9bVl0qKJInSlqI0SKUISHLm3lSHzqd88AiKl1FharT3/8ABc82FkSY3qJSphIdedzKCY7pkoy9PpYW1z39gR9XMfdaKq0IMyC5EdccuUnbO0JMOSpFZRVtJ8A01VhsmjKlPEHJlWF4tKCSlK0El122RfYQDZsIOOqqvuJLkNTBtvlTHDClOJoSTJwOsRDZ5O4eBSukQQ1W0ZFhMTHlKIyfLB9g43fCJ63bQoNquk41RjCgk+okuS1JU+9XN4CMmO43fWXTXjZgqVLdbbfIsS9Bj/UFM3tpdq0npGH/APSXG7y8dTJfgG2o60G+S7ajV4hDs5TKCQiyV6EiK0bF6c/eecKue4tF8s2SUQRBcVjJQRV+4ZRJUyhprxRnMOS5qkqOlluz6CUgnU2X3rZ6hBXEShq8Kqr7/US9gRd2WSl7oxE2cjC1HkbnbtX0doiK16iiiqQoWDy6Ftc9/YEfVzKHhIUSVCFqhV8xl7Ai7sslL3RiLs5GFqPI3O3atA4W1z5GwYj6vN5ewIu7LJS90Yi7ORhajyNzt2rQOFtc+RsGI+rzeXsCLuyyUvdGIuzkYWo8jc7dq0Dh7XPkbAj6vN5ewIu7LJS90Yi7ORhajyNzt2rQOFtc9/YMR9Xm8vYEXdlkpe6MRdnIwtR5G527VoHC2ue/sGI+rzeXsCLuyyUvdGIuzkYWo8jc7dK0DhbXPkbBiPq83l7Ai7sslL3RiLs5GFqPI3O3atA4W1z5GwYj6vN5ewIu7LJS90YibORhajyNzt2rQOHtc+RsGI+rzeXsCLuyyUvdGIuzkYWo8jc7dq0Dh7XPkbBiPq83l7Ai7sslL3RiLs5GFqPI3O3atA4W1z5GwYj6vN5ewIu7LJS90Yi7ORhajyNzt2rQOHtc+RsGI/m8vYEXdlkpe6MRdnIwdR5G527VoHD2ufI2DEfzeXsCLuyyUvdGImzkYOo8jc7dq0C5SaDW2R0VQRH2nSsJwq+wVHgka0IKpr5pmYkGyslYhhhTqiSVASk9E83m0vYEXdlkpe6MRdnIwdR5G527VoEtpwqkoqB2NQ6WsX7hFovmOYx85bsNxSGZHgGWXnVXhjGBJTmLzaXsCLuyyUvdGIuzkYWo8jc7dq0Djy1Lsm0eb1FC5ziEUN1OFItOlR1zCfm8vYEXdlkpe6MRdnIwdR5G5u7V51yO5yL7J9fBItXQmuJX/wCI6Dt8vjHb5fGO3y+Mdvl8Y7fL4x2+Xxjt8vjHb5fGO3y+Mdvl8Y7fL4x2+Xxjt8vjHb5fGO3y+Mdvl8Y7fL4x2+Xxjt8vjHb5fGO3y+Mdvl8Y7fL4x2+Xxi1AnOqc/wDKdRyO6abEjwV4K8tl7Ai7sslL3RiLs5GDqPI3N3avOXXfHMQvz2NIdwqV9WpbeB9rGQoNrPpFgPyyXsCLuyyUvdGImzkYOo8jc7dq85XtpDWwX1a9QVvleWS9gRd2WSl7oxF2cjB1Hkbm7tXnK9tIa2C+rXqCt8ryyXsCLuyyUvdGIuzkYOo8jc3dKE5EyRRBHikYiJiSKt/uIgpLUd15pB0U4nMQYNtCnzf6NgOEtCmVtlU0qGGK8TNaX3wDB2FO37oEkOkthxpTRYSUG5btbLnRIR3b2ty/9FKRIQbK2lsJqolDllDvYZjER2nUWyCVuYSM6YATbDLkldLRkjwF8ZwepegStxCnLR0IkhcZTLjDiU2scLpFeUyhVk3fAMspqZulUjEhsyOrBVMNzaHe1+AOMgjJRNkvCGicqd8OhUBsssOSVJ6dj9oJ1g9Zen169tIa2C+rXqCt8rLrp6Bwp0n5l8PpC6bin7UVBYvoEk5HdaZWdEuqzGOTtR3H10rihcvDRGA0/cNsvRnI5udA1+IWwmO68pOeyG37CiJa7FAxFXU3XsxF4A2EsOPLIqnZBS7CiTas0Ee2RnfzoQdS3gvarJ1CIqq2llWoUTcd11pB0U6nMEusnVCiwAmLy484ZVokOyDQptLecjDaHYzrKHDxVqzB9pGA2c4U7ZOyTlj+4jpXU7/mC73gsHTCChqrbNFuoVZjurYQdFOlmCXGzqlRVL4y9gRd2WSl7oxF2cjC1Hkbm7pQn8patUPBUhHTEbs2vEiEqPKdU27bP5dOkLkk5bYQVcPoJb0IzlovBnaUnxFVuqU9WptJT0RcdqPVV5KrmDMLonZOlj0+wOVMQokMlZaR6i5iHVHYYTVR2cwuoppWB1miMXpHQX2+L6fQFzjlqWy1yfpJBobNb0Ml4qjIOHLdVHtoxVUzh11KVElZ4DPxEWO6s6NqtLoWYOPMGZkbFlNU5zEgn3TJ631KUi5pMqU2RJz0zC6qVmpz5ecRnb6ulK2BWa44wnkxWTT4hkl2nGCX8tRkJ3LHVMXzCk6dIOqJKkk4upV8fr17aQ1sF9WvUFb5WXc1Bxchmq76echdhiG2aSwGVBGj3xbzhK6qzmCikOrjleqVoJF5RbZNyt8UkXPfN5byUdNVnoi6UpsjvWZJmWcE4ltSlJk1IqC506ZU31rqf2SLoPOrOwabKMXOHWmDM13/ADUzC5a1OrdK+ZvQXQN591h6+HYIvERjlJO+mlREYkRZTqkPVMr1ZzhhJpNBEnMfgH3XXDvSG7FbPiLoKiFfHbVbKk+AhLvy31EsrREnAkT3GnVNJ/8AkONY1rlWeguYpTinakf9sAlm4+6zIqdhJFnDXKEnflxDKodivuqJ21S80zhlNk04Mx/GXsCLuyyUvdGIuzkYOo8jc3dKBmRYTFTLCLamkGr1oMdBK1kMRCU6iB0aRh+wtIQkj1DCkhZslT0Djl7SZuHhqQafvaUqbzUIWbJUGO2k/wCwoSEkWofNbSunqQokqEHJBoJS156kGnL2lJtnUqELV6RXUMVBFT7DolhFmyVPQY7aT1kKEgqF9h8xtKtZCiSoX169tIa2C+BiWqWupNrOmoIZbOkJXR+4vT6jvnoRBTsdeInOLyTh2q0rTAER7XzFlUgplavmJTaoKW1V9KBDaFY6iqRDkdv5/oJLLTh39CcB0wVDCJrp39ec6YAli18xRVIckvnzqVoHHUrxEZzByTc+VWmsGiOo7ZeBkHL0qt76QW7bxEnQzCZD67Lasxht15dCcwpF6YUdv0MvivUFb5f0GKVAZ0Kp5xaS0gletBVbaVH9yFiwmz6UFL0imoUQkkl9iFLBU1CypJUF7S0lRVrhIOuoQXzM5UGEiOgqppBnqHRLALSmkmr1oKBZJbSq0q1hILkIQRGsqGVBgaR/gYqSIdEgVSI6CptIrqFbJVFs2kWvWnMl7Ai7sslL3RiLs5GDqPIsyG5K4zrRGRGkIbccN1SSwqPx5iGnkrUtWYkkHEES21NptKtlQWLLiUmdCcNOKGydJSjc6JJIOKIlpvfSIyCHUdFRVIG3ZcXZOilpLAQbUdpw3OilGEw49jJvfSSZYQ2mw63fDok1JwGLypK3XM9lBVHKEJcUnxIiwkLDKHfuZpzA27LiiSdDWRYpBp1yq0u9Gz4haEkttSCqdsh0HVIr0yTgCHW+ioqlzCUxOcjERZkjvd8d7yB3u+O93/8AA73kDvd8d7yB3xIHe7473kDvd8d7yB3xIHe7/wDgd7yB3u+O95A74kDvd8d8SB3u+O95A73f/wADveQO93x3vIHe8gd7vjveQO93wbj10nn0kssRXiGtkvgrUH7mRK3x907SvQhclhosCWxIUsiWTabIu5eMFHTzBtHJYqGDIjvlrCLnclJDskm/HMP/AMohCXLyeBOYJReys3nMEukX7aJSQQ/IOsh9pajE1x4km6dq0Z+oUqhVJNa/cQ33sK70RJL1DD8o6vPoUowsniMrnX75hl4iAzDZS8ozK8p8BFOc20ysy6LYulrMTd6L7hTFipoX3ULkrZa5Q4bRYh+AK/MEwdMxfFeoLcZug7HSbqsRI73kDviQO95A73f/AMDviQO95A74f/wO95A73fHe8gd7vjvh/wDwO95A73fCFruo86lOdJ+PNQci0ds6ESSCY9hxtaiqVtINuy4pJHQ1kWKESHDNSF9Gz4hSCS4hSSrjECdZ6INo0uOqLpWCrQIkmozSvMRZwsqLaUgqmlZUHQdJFaWzTgDdu04pwsVKCqZhbiEOVRnRTCCbbaeteOLmF6suOn42CrQFNqZtH6AmSQ4hZlUrRBaSS45YOijQQJ5itk+YZAzK675VHe8gG3Iuo+ts85BtpOEkJpkpe6MRdnIwdR5aHUq4gukiOWNybMQaiR6HJxSvdMJGLlspx1MN/N+wurQqCByGWcpSsC2vQOoiqKI5bx2jLCoRX7pJvbZoohR+AmyIWGOSaKUWYxc29ySfW2sjvRBxLikQqNdNWcxOQR2j+4nk2WMdqgkMSHyQquM14mLixG6mptVpST8CE60WLef/AKBqQaOSmZmRGWMIux5GvbSGtgvi9JZqpx064fAFLSaikNNmSBfpEt9uSs8eyYkN2lOwXm8a14qFDkvHHrW9VwBmWmpLaTZIhy+qr7Zsgp9TvpJshqY/U1t5i8A1MVW22myRCW7HedQSitXpJ4KiOp955KM6ma4AxJcI6s9FPgG5ajO22myQeY6TbueoS0h51JoVVCq9ENvrkvLeR+8zC1ty5DVvpElQlxHnHDiOZjqP9PRVLP2DL5Gq00iykgU2p3z4r1BW+V9Jc2v/AHRDS0VFG0qlA9EkUKVQ0mg85mLjQ1dffCUaPQg5QqfKBLiTTOTfeoEhBmUGYacc1F0hBelo/TIVS1/9gl3O+YSEY60hTfK02r7W9CAhxKI3y+sX4CUV9vpqLAfqJ+ATkSnyjqUZ9L9xBiK1avjrxGlJiEVP+mLpKgmgo98OtosITXPU/ope6MRdnIwdR5YlmkrZeINdgrZ4DMXxMdsl+tAbiG0ks85hVW0naz4BaajtoV6kkXxcds1+tASXmkrSXqQNtDSCQecqC03HbSr1si28yhavUyBm00lFc9CHy0knUL4uOg1+tBfSbSTn8qA1GhNTz4Be7CbHpQUSVC8jXtpDWwWWoWDKr1BW+V9IRrSSjLNUEs0EayzGL4qOg1+tATt7TfC8aC0pBGeoWijtkr1si0+whZ/chelNJNv+NAZMMoQR56ELXJm67IK/tJXTNUhaaZQlXqRA1JSRGYtPsIWr1MghV6TVHRwZhaUgjV6g0pQREecUbSSS+30UvdGIuzkYOo9Al7aQ1sF9WvUFb5Xm8vdGIuzkYOo9Al7aQ1sF9WvUFb5Xm8vdGIuzkYOo9AnCT/IjDKk5rJfVuKVmJIxvFxR+by90Yi7ORg6j0CW2vMoqA7nzcDdflOeoxTr9ThOg/wBOg4xK61ZeBBDSMySp5vL3RiLs5GDqPQM25CakLNzZ6mUeisI71LgHexcA71LgHexcA71LgHepcAdWd1SOymvQDLybpkklFmsjvYuAd6lwDvUuAd7FwDvUuAd7FwCVF/1JJcnphsZx3qXAO9S4B3qXAO9S4B3qXAO9S4B3qXAO9S4B3qXALN0boG6j0SVASI6KffziXujETZyMHUehcjdmI39+fdb8dA5e6MRdnIwdR6FyN2Yj/wB+fdb8dA5e6MRNnIwdR6FyNgwx/fn3W/HQOXujEXZyMHUehb+wYZ/vz7rfjoHL3RiLs5GDqPQt/YMN/wB+fdb8dA5e6MRNnIwdR6Fv7BhGs+fdb8dA5e6MRdnIwdR6FvbBhOs+fdb8dA5e6MRdnIwdR6FvbJj+58+6346By90Yi7ORg6j0Ld2TH5Hz7rfjoHL3RiLs5GDqPQt3ZCto+fdb8dA5e6MRdnIwdR+amtw6JIKOHAekNJ/eQts4pl0kn4DOQzl8M5DCfwzkM4zjAZczCZfDOQz/AAzkMNKCjJJIvt8M5DCZfDOXwutU6dH4YDIZyGEZyGchhMvhnIYTGAYTL4Zy+GchnGA+bn8sl7oxF2cjB1H5rIvecMExSzYLMLr8kOyVgzVT1EecmQ9flFU8cKZekOJaSwR0SoXTjIcNzk5kSFH9xFfhKeN9aivls8BhDC3HEspYtGSTphE+wtSlIdNKTV4CNIiG8b6jK3bPAYJlx1aGybqZJUJDTbilVk3u0foIvIjdMl9bfDE9JpW7np9hDedeMk2jNWEIkWjTFp8tP8hLfkKeviF0bsHgIIVK6eYNvNPupNxZEeMIlh5wm7ZGs1GGn7RtxK2UJ9RLmOvvX1LqqYwhIflKTazpLpKC4yL4TFitHDCCbUaLSqYBc5xh50750iUrOJM6RIWlaa3skqpZoCtuHfCcsWy8RDvb7p3wsYlKEg5DS3WkvmV89BdKWTjhsoSWK2ecIjoeMrbtip5yIRDjPLWiQdlSVqqJj5m+t9DxkkyPAQgE9LVjdJCM6hJhVdTHMsBKVhC4pyH70lNoscPMSFO3lhNEEgxLQ6o8Q6IVXCLnuofdM3TxqqEpF0nnUknqyQHDUtSyJ0ySahIZdecS2lJUJJi6jbTqlWXSQg1eAjTWJLinVKK+WlYDCV5qlUTpSn3SvZ4lFCCiRJUm1nSXSUJcZs3Es3q0RLOpiQmw4a81sRK2nSU2WAXWXVSLJYqfQRuXMrQhWC+GJfJ3lVN7EOoitsuGT5qsrP0DFs6qs+VS90Yi7ORg6j81U26VUqzg24F0VMsH+2mYSGLZm6+WO4GoN9PELpB5MWQqObTJFbpnD7Mpw3nX8K1hJSJl9aawoTQPS+XHHcUdKWfATYMxy/xXU2rdP3BCZM2+MN9FJEH333jecczfYSGlOVNxy+JV/Ew27Pl38mugRFQSce1fvtmDDCpCrLaq5s4jLQqwlkqWQ7yGXeGXTqpNkJZbw08Q0RuGiwqoZS46baUHU6eIjG2q9pYKhEHol9NV8WarWsReTyLD0foqMgU1yWa3KUUVM4Sg12LJ1ENRuU5P/wCw7yCacdh3pIoIrKHzTHZO0pP8jDL18s3vwDrSLoGUdxdo0WRdBu58nk5NkRHgzhTSnTN9Srd8+4Q9dKWcq99AqZg8hm6BpZdXaNNgR1Qn704z4mVajljks3FGWMVM4XNvh4yaWQqTAk8mWsqLxc4bY5UdLVp3/cIx27F4El1xV9N464SzB1tK7ZLcNYdm3w/mFSyJ18WailKtbIaTMnG9HaOqUUDpQets4oNBXSUknMZSbPiGzckWHo1SbVQLkLmGpa0WVYA7Ct9P91A09fLV7TZpQTXCdpyks1MwaZkzzdjtnUkWQpKXjoa7QfVfTo4WAvQIaras+PlUvdGImzkYOo/ObRFh+iWZZ6B6/rt2V4Ofdb8dA5e6MRdnIwdR6Fr1CTvOfdb8dA5e6MRdnIwdR6Fr1CVvOfdf8dA5e6MRdnIwdR6Fq1CZvefdb8dA5e6MRdnIwdR6Fq1Cbvefdb8dA5e6MRNnIwdR6FmJ29591vx0Dl7oxF2cjB1HoWYn73n3W/HQOXujETZyMHUehl0d9z7rfjoHL3RiLs5GDqPQy6W+591vx0Dl7oxF2cjB1HoZdTfc+6346By90YibORg6j0LbcpfYbmf7CbyNkzekOVRXwDbk06vOYyvtzWpUf5kZXWEJ8lhk7cilgFInn813DZ9NApe6MRdnIwdR6FusnnzkPnpomOdT1852O5+4hyd5BklpVVAiLMWgUvdGIuzkYOo9CfnOoRrMYFG7sFUfpYjx7SaB1yFc5or6dVGZ0GMltrUYwy7A71WX9h3w7/gd8O/4Heqz/sHHmZNXHOkYxSbc1mPnwW6f7VD9XEeLZTUYTU1tlQfJeQvUfn0vdGIuzkYOo9BrbyyQn1MXu5zC5B/zIsUfq3ijI/8AGP1a1ytsx8lhCRmLJ5h85hCh+kNUU/8AYYXYfRJQR4tv0F7ukwtg/wCdMUW2FktP287l7oxF2cjB1HoKSUlfH14EIIFIuy4fqTScwssIJBfb6Oy8glp+4ORcZw0qzm0fRMGh1N6ko6aD86l7oxF2cjB1HoLKnvYVIVe0l6fTxros4rlsm1ffzqXujEXZyMHUegs1MgqRHHzIl/7hVJ1I/paqwEIzcXGjNvFbX9wXnMvdGIuzkYOo9BZ7UhNpJyFD9P8Aq4fofSIUWq8OfwXgMVL6KhLvzn8EZxRysOIfEYjNRyspv6QXnMvdGImzkYOo9BZ39Qr4VdaK3/Is4tXNlnX0dOo/VxuU7ofq2XI+0Q+XJSYxHEn/AHGcufnIY60l/cfMkJIfpWnJGyQ/SROTb0VunLMvs1gFW2iNf8jz/BjfpBecy90Yi7ORg6j0Fnf1Cub8xtKtZDqEp1EOk8nUsfIkulrUPlTqaxiXRTwjvJvgHeTfAMa6KeEfMnV/sPnyXT1KFTU8rWsdQlW1hHy20p1FzY+/SC85l7oxF2cjB1HoLO/qFfTx9+kF5zL3RiLs5GDqPQWd/Uq+nY/qEgvOZe6MRdnIwNR6Czv6hX07G/SC85l7oxE2cjB1HoLO/qFfBPLXLFvMO0f+gl1k7SFZj+jY36QXnMvdGIuzkYOo9BZ39Qr4XNJZEovuJRky2WJ/EXNh3P7Q8mlfQMRbqOcobkdFfoYkx4T5NoZKokuPrq605ZqG/nIN0yzVDzxSEwmG+iR/uES8ppMknQhHbuk7yhl/BX0MTaTkR0MLoSVeIckNJI5CTskIypE5uUTp4zaf2gpDEj5TiySlPoL9NdJ51zA39gzJlTWpDTh4zZH0RBi3PcvV/TaMxdBiW7fFMNmaTDb6saU5gIgh2UfzPH4R9+kF5zL3RiLs5GDqPQWd/Uq+FzlNtqWks5l4CUltJqUaMBELmTkMKVei+YimERXmozrcaLjGak5xdKctpTaXcCCUQuiSmFnV+tKZxCRc2A9HkIPGWZGQXFu5AccdR1RtlgMQJhtqWcc+rphsiIhmO40yydpalpoJ/wDqdzn3zU4dhSUmHb0haGTXgb8bIjqubc54jQor4oyMRrw0tR31J0phDZIRaU3RVn1DDMS5Tl+/eayOhBty9KbaippUyzi6qr0qyts7J0zh9+e2qqEmlpswRPINCq5j+EffpBecy90Yi7ORg6j0Fnf1CsjhL4YPjm+ObnMf1CQXnMvdGIuzkYGo9BZxePKD+njkWe/pBecy90YibORg6j0FOW2Rqhu9Ykv2/cE5HWS0n6fSm4+skJL1CZBkaYLPRI/3H51L3RiLs5GBqPQU0rKpGDeuO7e/E2vAxerqR1Nr/kksUfIeQs/Sv0Pz3kI1mL1cuOp5z+Rlii+3ZctlnvJZiBJbKykvOpe6MRdnIwNR6D2XUkovuKx7UZXq2P0MonqZr6P1cW+7sfOiPs7RDHfJB/cYshBjFdSYwKL/ACM5DOQwqL/IxnEjHkIIYj5LP7D5MR97ZIfpIl63g/WyUs1/7QrJNUpXq4LLSSSXnkvdGIuzkYGo9C8dBK1kHpCorSr2m10Qy/eCRfE1wDAbidSh18gvzHaZXuDtMr3B18g/zF0I7q3FNs0s1MYWiVrGJFaL8RiIJOgEvdGIuzkYGo9DJm6MQ92XOuv+OgcvdGIuzkYOo9DJm6MRN3zrr/joHL3RiLs5GBqPQyZujETdlzrr/joHL3RiLs5GBqPQyZujETdlzrr/AI6By90Yi7ORgaj0MmboxE3fOuv+OgcvdGIuzkYGo9DJm6MRN3zrr/joHL3RiLs5GBqPQyZujETd866/46By90Yi7ORg6j0MmboxE3fOuv8AjoHL3RiLs5GBqPQyZujETd866/46By90YibORgaj0DtOKJKfUx2lriFplZLT6lz3mDOzfE0qGo5KtXtNK866/wCOgcvdGIuzkYOo9AzafTbQfgGI5MfJNqppEaHDZJLbp4QqEyi02kjx/uHpLEdq8N1zmGZCismsq0EkoTDRtsmZYTCX1NfqVrNCUF6hqNdZlCL90DQJiYTDam42czMQXXUEm/rsq+wW5HO/mnwSGinMtpadPARHjEHk3IYQttjpmvxDC4zZX5bl7USvAwuJMQi+EmvyxdKUhtCUWiJaV5wiXDaQtizU6g5t0G0IaNNUWQyuc20Ud7o2TwkDjXPaQuibVVBbj7JE8S7FCzVDDUxlqy6eA0n57L3RiLs5GBqPQSO+lszZJqhqETkCDPGwq9BHvDRmgkHbV9xLacbMnFWqJEdt5NhZJwkLo31s021nZ+4adJk79HfUqx6kGHThuMtxyqdrxMXTfdaU2uSZmlBi59qIt69O1cQXoHpNzoq4iSLq1+IZUmE8xIrjrVmEpsobklLp1QpIYcVHW6pcm+rQnOQ5RDjOxCs4188RdJp2M49KtZ/QXq8qS7ZpYDTFKPIR0RHZRBdQpHTU5mEyS8wplFmwgj8Q6xydXzJBHX0IQlxzdeSk8a0ebz2XujEXZyMHUehjz5lavaa0DUgk2b4mtOddf8dA5e6MRdnIwdR6GTN0YibvnXX/AB0Dl7oxE2cjA1HoZM3RiJu+ddf8dA5e6MRdnIwNR6GTN2YibvnXX/HQOXujEXZyMDUehkzdmIm7511/x0Dl7oxF2cjB1HoZM3ZiJu+ddf8AHQOXujEXZyMDUehkzdmIm7LnXX/HQOXujEXZyMDUehkzdmIm7511/wAdA5e6MRdnIwNR6GTN2Yibvmm3aK2XgLr/AIhRIUSrOfQKXujEXZyMDUehak5qibc6cm/NrKjZiHc6Am8oQVHFfYEnPTmIuhCWaHGMJ0D1h35kmiVmRBttZmp0yqsz0Cl7oxF2cjA1HoGa3VElJeJiiEuvfdtNR2WV7Y7LK9sdlle2OyyvbHZZXtjssr2x2WV7YQ9HjSEvIzmpHgFvSI0hTy8xpR4Dssr2x2WV7Y7LK9sdlle2FtuRJRpUX/bCpEiLIUwk6pKwOyyvbHZZXtjssr2x2WV7Y7LK9sdlle2OyyvbHZZXtjssr2xRaHWfutNAS2lEtJ+JecS90Yi7ORgaj0CNSsxBS3FGm56TolJfvFlhpKC+xDMQzEMxDMQzEMxDMQU24kjSoqGEttpIkpLAMxDMQzEMxDMQ6JDMQzEMxDMQzEMxDMQzEMxCy+0lZfcgTzBmcAzx0n+wJWjClRVLzeXujEXZyMDUegTik+JkQZbRgKz9W62vMaQVr9qzT5vL3RiLs5GBqPQJe2kNbBfVr1BW+V5vL3RiLs5GBqPQJe2kNbBfVr1BW+V5vL3RiJs5GBqPQJe2kNbBfVr1BW+V5vL3RiLs5GBqPKdJP+fNl7aQ1sFzVOvKsoTnMX2IsnEev0q9QVvlfRdIv8jB5JL3RiLs5GC8/avZEeEiqOsX7ZjrF+2Y6xz2zHWL9sx1i/bMdYv2zHWOe2Y6xz2zHWL9sx1i/bMONMOLvik4uIFvSpbqXyM/+oL7MM3DtWW6/uBNXQj8lNRVThzhSuRq5KlVDcDkc0WDS3bI/UhJfS0ZoaOhf7gyiRDUyl7oqMPt4EXpVnCYNaYhuskWFZGFyZERTTZdH7htEyIbCXegdQTK4Csc6Iw5wS5DV5X/ABDrUSGbxM9NVaBqa23bNxVmz9xeJUa9OmmqSrWo5Mdz1Xw82EIYYim7LPO2XgHnH2TbeZOi2wyqVDUzGeOiXBIaPFSym0ahKeS2qywdNYQzMinHvhVQdc4eNiEpxhnprrQRCQmvKP8A0HI1nChFqo/1BxNCOtEiGdjtJVL7BcbCaWyxlkOsX7ZjrF+2Y6xftmOsc9sx1i/bMdYv2zHWL9sx1jntmOsc9sx1i/bMdYv2zHWOe2Y6xftmOsX7ZjrF+2Y6xftmOsc9sx1i/bMdYv2zHWL9sx1i/bMdY57ZjrF+2Y6xftmOsX7Zg2I61m4paaVSGtkubHgkokm+vG1CTctLhKSRW00MSialNMoZ8FAnIhk28k6GfqHLbyCbYXZXih//AEpaWWGDs1Mq2jC12bMttdlRCPMnKSuM4ZWkEXRqHkOKIo6EWhMRZ+ShFpsvUFLkOtkg19n/AHUEduCtEZC0WlOLF0GZC0vOxk1StOYwucfXEi0LkrKlZJ44Yhw8KK/MUHo0FaGEs5zV4iU1NUS1MqpUuavUFsyVKJZOqzIqOsc9sx1i/bMdYv2zHWOe2Y6xftmOsc9sx1i/bMdYv2zHWOe2Y6xftmOsX7ZjrF+2Y6xz2zHWOe2Y6xftmOsX7Zg0pccqf/jMSl3QlOJWSsHzKYBNN5xTkVlXy1K8Q1yuLeGHeg5XOFlGiKeab6a8wjtWDIn02kmJTaUVTHKqlBK1QVEypVCVULinRJpTWpmL5Hj8oRSqjI8wU6uGptgiraBLdhmiKaqE4ZglciUtlVLK65wapMc2PQgUaJFOQ7Sp+BB+Wpui2TopAZ5XGvKXixDrnBNqgKO10DrnDd8jHypzosh5E2Ocd9tNqwfiCf5CvklaG4GmEFgWi1aElhCTssFU1eobv0M247qqIcMwpqHEU/YTaUeYNPkjpqs09Aywaa30q1EuQsrCY6jTrDUkmzo45ZINRqW1KKqqeA6bntmOsX7ZjrHPbMdYv2zHWL9sx1jntmOsX7ZjrHPbMSG2TcUtaDIisCLaKh2MjjpJWsh1SOEdUjhHVI4R1SOEdUjhHVI4R1SOEdUjhHVI4R1SOEP2Gk2rOCiQS5LB3y0dahhUZGIyeFKQ0qG048bZVq6VAbd6dalJOiUJTgMQJjSfmmkm3SEaE02pbz6q4CFzUpSZ2TKouhypuQTpr+WaEhwpJKU74F40DZxUnfaFUqZhCcZS+8aVlbUacwuYtCDNN8LwzfCaiffq0o2lCc4bbvLpG1IK0VkR3oBPKpgWbifAMKsnZpnDkt9tS2Hk50lWgmTyaNtq0Vkj/cIUOOwu+kZWqpwEFw0oUmOaKOr9RdA2It8QihEVM4ZkXOS6bhFhJacCRNRMvxyDwJQlOAXNeWw7YZVRREnMHDSh1JOtGSbSc+ASFTG1E3HSu9IpnFySjMqvpps5uiI5WLdoquKpnMdUjhHVI4R1SOEdUjhHVI4R1SOEdUjhHVI4R1SOEdUjhHVI4R1SOEdUjhHVI4R1SOEdUjhHVI4R1SOEdUjhHVI4R1SOEdUjhHVI4R1SOEdUjhCzShJHbTmINbBc145iFFHjlZT9xEl3PQtSTVZX4iWq6cWQo1nVFkjDxKSaGa/KIxdMnEGm08dKiXGmMuKJbhrbUlNah+a8iwbrlSSIsCMw4Tpmm3VOAgURlKks0K2v7CTyNmpNx8T0MJPkjyLqVIqUxSDSbtpdXHJBWSQLpJYjOttOtHeqkHIKoz9+NBp6AuUuA2pbjS7BlTMYgHZNx5S6uKEtx622huhJ+4uggyUSb5imfjzV6go1oSZ35XgOqRwjqkcI6pHCOqRwjqkcI6pHCOqRwjqkcI6pHCOqRwjqkcI6pHCOqRwjqkcI6pHCOqRwhdGkZv4iUuWwdq+YKhTUJFLOGheIisNIecdTnJZYCC4kpl1h1JYt7LpCJKs0kx//AID8hbalPTcJERCGiwZqqRmReAcVNaesXorJoITb7aNsyO9ErPQLvSDJ4knZIwmpPuySMjWVnAQiXpCjwpwUCNQUmZfER6YthOcXVZQy4Sjxk1LOQg8kS+chumBacBCAZIM6HhoIt0DbNxlKbKiLwEiSw2pDDbfSUVKjkKI6zfUdCxcAhR4yDqpFFL9CC+TM3wks+P7hFUw28iSlWFuzikH0XSvqcSiUtpzgivDvynamVkQlk28lJYtVJoJjLyFIhpdNe0CvLC7ZSDomggvvpNyS4fzD9AXykcI6pHCOqRwjqkcI6pHCOqRwjqkcI6pHCOqRwihfT4CIhWhVDbzzx3lH/T8AWDN8M3xwJL45iGb44SqLzWyVahCCIsUqfHAREK0KozEGnVpK010frV7aQ1sFz8xfHCRGCaI7NFVCSoVSKnxrZKuoYxEYzDMQWhksClWjyC9QVvlfSYCIYSINFfjbaSdVJLxCUJLFTm+Gb49Ev8fHCRGMwzfDCHGejbIJaKh2fH41oVRUyIZiCUupKiVWhg0XXtpDWwX1a9QVvlf8Br20hrYL6teoK3yv+A17aQ1sF9WvUFb5X/AbrZeGMG1fuTgMvq3XDz0oReoQk8Bqxv8AgRUy5hW0K6xkfq6xVfxWO1oHa0DtaB2tA7WgdrQO1oHa0DtaB2tA7WgdrQO1oHa0DtaB2tA7WgdrQO1oHa0DtaB2tA7WgdrQP0pnJV6ICJd0SvbKcLbP/wCxg/4Fq6yhetI7K1wDsrXAOytcA7K1wDsrXAOytcA7K1wDsrXAOytcA7K1wDsrXAOytcA7K1wDsrXAOytcA7K1wDsrXAOytcA7K1wDsrXAOytcA7K1wDsrXAOytcAq0w2g/sn/AJe//8QALBAAAgEDAgQGAwEBAQEAAAAAAAERITFRQfBgYaHxIDBAUHGBEJGxwXDR4f/aAAgBAQABPyHw/dEF5K5KU35wk3Bm1FtSavnippKuhV/vyZBtmwQlQmiJeUhsNKMyNtwB5C6S8ts6IdaEapVeN4EMMRAiJxsqvzo2PHGTIsyYeV/+DREWXvQnkWpsk+Q3ClkwlJ2lx2JP2FKZKevjegi1RZlCyEEx6U2jxuzTfyEqtJho0VhsyrzkbHjjKkOTKYpahIJJSf4iSSFbyKkxI8JRBV0HwpWFUIZJTC8ceok7qBv+ONK7b8eVvOPYTF7rRv8AjjQO2/Hlbzj2I5erf8caFm748racexHL1b/jjT+3fHlbzj2E3e68bfjjS82/Hlbzj2G5e6qbDjir9jyvbvjytpx7COvdeNhxxoPbvjyt5x7DetdVNhxxp+bfjytpx7CfvddNnxxp3bvjytpx7CZtdaNrxxoXbfjyt5x7DdldaN5xxoGbvjytpx7COtdVNpxxpHbvjyt5x7DdtdZNpxxpObfjytpx7CfldbNpx4J8Z4opEydfAkyAas/e7wpWRG3rOOPch7d8eVtOPYTNp66T8uRCgSvl8DnOjTBmmAoQcVAiCORPzHy4iEOY1eENtwIrGiDPeQTzfqIYy8JLURXGlCrFfROvP8azULcRWSrJ9MJGOZWs0Do5mZgnkvtR+ZQN0NAuG6SdCIp+iFcTLbpIkmIxUeIR1kVjmt3MnML/AFiyEB6xIx1I21ciJ50J+l85zne85zve85zvO869NOb8aXEyRMUyV/APO8kG2onsIakiVJXBqxBBFnCpl6DKFRoakDGrNAgM1SV0UqOuEPnHtYLP9gNhFvmSHUF+II6UxIoNrXbBSnryjozDlVUygiaQzCvITkS8z16skozXVEtRPHstiXIR83C/cXG8iow32gnDsZIIDpPB8xkWH7E9cDPdvUdisrK7R5zne97zne95zpZOcPK7b8eVvOPZjspeC2kZibTlnqUXQer8C2dKGGgWBi3npWKN3zKxPh/0xkGOIc7gZ+mNIhUnK+o0Lmua/jg8+bfnVHpc82idMibkNxzPkEZbnVZXI6KjmmJlwBTPoNTMIilZ5XUFKoSlX5EnSoP4GINrlQTkeyaDVNuvpXRRW8XVvDEaiDzKYU6cpirnkLYeN/o9ORZ2ppAhjkqIwIAUCk2wJKoc6IBc8D0lYKJOdJZGRi6KgwNMrRn3uZ82N91VajHtdJKpZFDY1C+xK1KG83vlZjnoLIw3WJqQyBFL805V1pBC8olwI2RRolhc+QNHMIoWUfyNcSqNglC9Rm748racezD57Yia8BiQZoyBKTl7d0EVvF146x4HhKZdMR1EWSG5Gi6x7l2748reccL34Qq3v+Azb8eVvOOFzcrVbxbRj3kO3fHlbTjhc9O9W8XVPeQ7b8eVvOOFjs9wq3i2THvKZt+PK2nHC5ueKt4tkx7ynbvjyt5xwufioreOHXPeM2/Hlbzjhe9PhWXv8I7d8eVtOOFh87oQreMHWP77x2348reccLXr3RhW9/hGbfjytpxwubnoreOHWP77x2748raccLm55K3i3DB0z/vvHbfjyt5xwvav0reOHQP++8Zu+PK2nHCo6e2FKRoJo5qjA0A/Ci2kICVhMU7jXfMrF1G937d8eVvOOFb19Vhu0oQnoARoXnwtJGnYV0FzoG2NpoJchEL3fNvx5W044OP3oK7OYjnI5yOYjnI5iOchEhA2MMxJI5yOYjnI5iOchKSKUuCVW6OcjnI5yOYjnI5yOcjnIhn2/t3x5W044NPU69Tf+kmLt1A9AAFjWNYwLAsAFktUR5IALAsAFscwUIXcfuj7d2348reccGHuaNAL7GRNQzrv1fTDk0XrI+9e25u+PK2nHBg6u0bSosLWxerrkz/g07Gvtvbvjyt5xwZat7Jk2zHq+o/w2XPtubfjyt5x6Q9xnozLsVWvWU/FYE0jzErUZd+JBAkxrEWBfeEasq1cWI1jo1WTrkdYRysVWBRuoiNRfA6x2gUWzzlP3XzE2ZrPuw9sanNk7EdJoNCJiVDOUMPDVL5uMhAStRKwI4MVEEE6jn/UU4Fm3b1+yZNsx6vqP8N5z57tu5OSNVXVWBmVO6qDVohyHtTT8pERXZHJ+PJsVY7stC/N9umdxxgKc3RshmG873TMHhyUxn80hZsomiDRPECVZtMK/wDFBLKSfUga4vwsJtRMUyqoTozREMbqAUEjGGDDeEordOHg7d8eVtOPSH6LogNkE82kMTEmp5iERZRbYnTcfoRGr0GkJA5WloJTWEGYQML9iKcigzlgcxdUwBWWt/YhfzSpzJWWr6ZGLqW6j4iJbf1AXgCVAVCJ0XLEvyaerkUqEWVAyNTqRKrIP2CpS/TqOYeWM0Q6oRFM8rvX2yZNsx6vqP8ADcc+fpMxHllfnCEhSyUEaQ9LKZYMgO5ElP39GDWgqIDY5k4YIU4jzCvpex9RBal03LUgwVRXJjtyXMUgZ24C72HkU0Kh20l5UpSRShFIzNgUWoawMVuO4QS1roosEn1UKVXyLfXMAqSWMIbQoL0MKm6CPXI9zB+N4O2/Hlbzj0jqihqrjgQ1WlnBzQmWROkqVqggaWO9AYMk7qR+ZeqDabZbvQSYEcqgjU8BWfAydEMEXQbSOT+EhA4JUE1ZVkjPr1Gi48yuqt3Eh8WgNrbcl1CioNoDpNusLE5DYQZpu1aoIyCLJev3TJsGPw8lXSYmFLEWQrObCNItL2yCTJdukGYcNz5HDt/lFbLWTH4irktUEaTpl4koFYJoHC3zMaByconNOki4uv2GhkkDi7kQXZNEOf8AFBM6ngIq3wQAVArtEk7lH56j/DaM+e1NxNC15ISldYRc5PiLJzQpIVFR+AUAVhE5B8gG+RspgMTiEKVYTFo0kt1EjrebAiMYlHPMDUSWmkuxxYhc2qsS3TEE3Q2absSMqhQWjfUk63hEKinM2GLaYlEqDJqJaLAUJwSZMyyJRbwdt+PK2nHozUzmfcpE4xd+AoB8yZpDlAQi26Ab7NUd9NmJZzaP41+I9+oF3yMNSyjIJPHpZfoh4KDgTIPlLJCSf+1KIS4LkgvS8f8AYPW0nliIbZggdNpLDwh4YiW8a7nY1+C7Gjtb8F2NfguwI7GvwXY1+C7Ajtb8F2Nfgu0I7GdoR2Nfgu1vwXY1+SLsa/BdjRN0JtVG5Y/HVCI1FGYg+PfscttVkhNBPkUkSSof2Ffh1XUislVCYF/kjoJCLWQNjfvJRSgmijXiDKb+cTIcvXDNDh8uNFofsLeQzHh/pJSj1dOZHGdYbSX/AKI6Z0IAjdGgbX5P+u/wiT8W1X8F2hfhu1jsC/Bdpfguxr8F2NHaX4LsaGLolOnhIauCG2KY1KAmjRV2d9jfhxBLYkmsKOg1tt21UtNnfvSyEbVP4IqrKJBRnOeCFM0MEoyQ6n9DCmcIVFPUvG+Y9lrQqWJ2jkWl6hUjFc58EEOJUSK0TNxC/BXs+uo0pplb5eVvOPUWpSECd0PqyShcp2NKUW43UrfNjUUhA5IpBnhhJf6opMXnhKlpVBVGTDAKjl0qUfWP+rmYDIPclJJNdMVcbpjwTWj8kwhGNtAEnSfY9sybZj8SCdmSwAZ/yIToG9WTrOm0Mik3w5BePxd2gwnSCixtNIGEs3NI/CHyblKaCBJ9u1QHP7ALHei0uQESLqU6QQrbralrVIo+BzxXFjTxiDHpWllTIIMKG7mNmknHSEUQNRE0/PUf4bjn0iJrSVyFh285FIMrHZ11IS1RZRsUW9Ql8moc2VOg5u3gqCB1m1KQQwlHSNXU5Q46/AdqRNq6Sho30GpZoT9BKARRdTcjVSVUIbsmdBETmvRbzj1F7b32I1RArCUNWjljPWWvjqqz5tzcKKgsgjn9IbDbFNBa7s0MU1ZZEEhMWA+VLFBJM1S8DmGfWUwxEKh+suG1CSJF+IRVk2S9j3bJtmPNaSQ6ojDDzeq/w3HPpGy5lksXpUqqiu9ZnWaAiFeSHRm0bYrjyYILSHswREpZqC30VcFEKuZgJkT/ABAoqJQoFC7DZpXF9TWqD55wEJCKEyHSvlErnK8Cei2nHBh72TJtmPV9R/huOfd95xwZYtkybZj1fUf4bjn3faccGGK4guqHQy38vVunSYuRT/1r932nHBhqVlLzE7cxusgrlCcn6lZKk5izO0tEVkx+7t5xwbakYXa6o+MCjx37ft71FBsBSbqafj29+35wTh1PKe973ve996PcFSZVdrv7942nHCoz2XB039cFRvOOFbVsuDZc+Cs2nHCoi3vBvOfBSbTjhUxb9g3nPgpt5xwqa9gwWPP+uCq2nHCoq2vBYbJ4KreccK2reMG4Z4KreccKmLcsFrdXgqtpxwqat2wX9leCi3nHCpq6qNO4rwVW049/PSFCstsd4qGug+TNxfud6HdK+xIkpyhUSc/kdoL5Yksaf2JqE58mO6RfYnKUkFyXwyGTnIhN6jehJ83+Gu/7hNsn7IZR3odmbPn8VKtFdpCfZ32N6EnzY0Slugn2d9iadmQLcxlCZUFyXwzvQ7wl9iapTl8ncixL5ZQmVAn2/cOyF9iRKpQ7IfLFaNP7E1Cc+T/DXf8AcNSlpHyWQfwyGVBzEQyiZOUIRM0F7VvOPf7U1JUKYwKknk5oFORLy1GiAzpZHPm8SWy6kEjSYYXQgqeJ/DlWNnl+6YSIn6k1zYko+ZAqU0s2VQZ1I0ln4kiD03kVF0HRJLdnlkySx0kl85abt/QWiHu0jbzMERx40jG4yB0wpSRXO7k/xJL0yzGNeyWb1Hvsk5lUDqHUq5iI1kgwc0ChoOg0p0SSpLDCbjHyhm/COpvjgOUFFgEmCX/4cbXNxKM/IZkVE2GTlasRkrGARlLCZMv11Lt9DQCoVgY9loESAXAmDILgSWXkSCM10DNEZze9XkSUoqsGpQOGNRlVUqxME0yMIKiPWZUtnkCCgYOsBxPiS37VvOPf7VEF0IKXRuHkFRdafdt6lEpFRc0fwAL0ASVqIp3RuNUMk6FSYYphLQrHmjQ7GChFdmrcDYXRwDLGAory7vqFRueLE2KLd6K5kVdhyzS5tWIhBqdROSaEFGeTVxTEJorBl1c1W5heqAavuSGxFe0YiuywhFHQP7yfqOiq43Ffn7G4rMqKCOFlVS3FhoEwzMBmVxDKnZAU+HWwSFjsxRfEVBGFvNgqQ6MmktYEiH6aXA9jYi06EixpwIbWaGQgV9sJTxYFGZ+brkjyMJyh5eWSf35yGieLJcNIREw6VHhEGcWosKzGFHfkhl4Ilr7VtOOAxUmCKe79ExxhHhkzjMUscFNvOOFbV1U6hwU2044VNXXS35+Ck2nHCpq60XpzcFNvOOFrEnVOCi2nHCo66Ms+fgot5xwreq/hLfn4KLaccKjq98FpzcFFtOOFT07M694+h4DbzjhU9fBYc5PjKeAtpxwqMl90LFw1gzY/AVBzaeFBEiIbDeNaI9Gjl/mt4C3nHCt6UjSp+aKoPoAJJIXhUZSNDZaecCg4RC4C3nHCZ6nKJyPwjTTdgeyTin+0J/hxrPgia/1fjVWPyQkZfyuNFqqvmH4CMjKoT+4D79tOOED0yJa7Bbnvb+gapVp1FVWdWSlKFwhJsr68uW6foVuo5Q8nzZEKW8VqGrUl2/oIDOs2973nHB56bTe1JsmkW5KEWGck3p6Pk3ZBDxu4/Ah4yhuJ962nHB5yqme9h6ewIAtDHgeV7zvOOD71Nmi7LmEVa2a9K8MSLtii2vqtWdB7zvOOD74kZ9KJdTRe08h+poIiZlPVehbSS6In4jzA2uQStcxOVE/M6T3naccIi5Uor0qhB62+iARD0d2E/wAORSyUAmt+45i8MMo78IJSfhXsE0CGSsxDsmroDpYtpb8bPk6D3neccKX5XTnWJqtZiJMmeeiPWqzV/wAEjtH8/iHIHVf4Op/gP9VESAPPZYvgB0j1eHa8nSe87TjiY+K029nSe87TjiY/A2XJ0nvO844mtCtnydJ7ztOOERcKOpezFyK8F8xM9OfRm75Ok953nHCN+FWciiDlYqXEo7IS6RQlmEBfDMIQFt7oLFTG7k/hE36NQwfjmIRwEjASXQaQ0GCxudnzEdGpjUQY0g6hu5IRMyllF6kaCtAQTQItYGVW6/pIIf8ADa8nSe87TjhE+In2HEpUNqNVwxkzSrChlQXGm3Iswuw4Quy0RaknQSEu14h0wbKNn0MqnwGFe43kQ+6N0GvoVDZuDWGi/ZsPORJaCK1anK0Eys1FARm3dL4DFMlqEaCq9dPUlKTR/Gx5Ok952nHCZ+VCsxKUSX0JJWRCIYHaD+iP0WQl8IhghWEuyL6/KclIn8CRWUEeDZcnSe87zjg80Vh6d6lNGvs6D3naccHi6xfYXBcyLt6VTiZbaDRrKfcW953nHB96SzvkxyauSavzfX7EJyAq9DexwDBoJC/YQXZIBIioQkvet5xwieHBl3SEs1u7IIsZAmnY3Lxx9EY/0sP6IF0Y70d+LIxY19n9ZCiYcVy3U87GNCi6dSJSmpIjqvRL3zaccKnhNCoGy18GJMlEPwdCzfAPfp3aXb5BpNH7M/hV9DFBDHxS4A3nHDp5KjoOA2044XPjeheLouA2844dPDSdFwG3nHDt4KTouA2044XOBOheLouA2844XvDOheLouA2044XPDeheLoOA2044XPheheLouA2844XvBeheLouA2044NHDYkrsKE0vic9DM+NblRzpoLfCom18XRcBt5xwbfEi7hhFpNoOkj1nfgQ1/SjQa+NyKCCsmQYsGO9Aj27dDQbKUlqn2NiPFaYrhzrsYLkL8sh/4p1zRTGoxEuRybfkqJhraUOotrR9Rze1OpFbENVsd8uqb5hao0MigjIVdQFTl8T992nHBx4wBTlMn+rPSQv5mWisdbayPHwzNCBednoELqi6q4f1ZEriRcfmDgRGQLFqQNkpnNdFRGAJM/simAegNKKZfAH9tJYCgLzFUpWw5ZwfSRccFMYC6BBJYAvtFpMSkC982nHCx8XEpz5C3wqJtPF0HAfeccLnwnTvF0XAbaccLignTvF0XAbeccL3gXTvF0XAbeccLmgXTvF0XAbaccLnwXTvF0HAbeccO2gTOg4DbTjhc0C6d4ui4DbzjhU0NxcrCo+J4bArkihjoi/saD4C3nHlXRwWVbKESSyotYQuykzhV6hE+BwbuaRTYugMZPQCu+Atpxwaar4BmDOi8g8je973vdHHEWjThXKLw9+96Gthpl5oyU2YvJe973ve9qqE8MWoZMn3jeccGXp08Lls/0qXCIa30DtR2o7UdqO1HajtRA5IRoRuSJB2o7UdqO1HahLbakd6HajtR2o7UdqO1HajtR2oc3PoER/71PgNiqB7vtOODDBQsf7EUrAj/AH6ta8vD+aYr6932nHBhy3bJtmPV9V/hvOfd95xwZeNkybZj1fUf4bjn3faccGDrZMm2Y9X1H+G45933nHpbUzsQTTt7rsmTbMeFbJaWFWUxD0vUf4bzn0TTdYQlSa9k2nHlGiNJLy2U0Q000QQ00kMcqiqfBVZv4FznqWA0dV+cC541cdBjhE4Epw/kNWlUDny88EATmArDHMdRBmbf0PwXKixC67C/HS6BIdZQqT+5GMitIVGoV42XjIciLoYkKE7iI6iXSBJhbLlX2mUmg/QcN6Q6ctrDXO2iWHGE13AnzoQ2alFbDx6rTTRDTTRBDTTBTTTRBTTTRDTTSA0AatSnZU8KhIVNwa9HGQaSdxDLHtiNKUE3bCqjcnAaiBHtTpcTiVqIVZBhWCahVK3ZkoKoxCBED/o/XAIeCpYe1RTAypVERb3+HIuca6Pw1fN/g7b20zV6FDTTDRDTRDTTRBDRSMA4Qcg9GBr/AKroBJUxUJV85a4JCfu9nloMptdDOCMd6kMpFImRNZRoALwzbJ/8HtQIbBgag1o3Y7o1QW0C+R4mtDUVjZyrCwg8Aq6XUHVkStKFg6qPjpLU5ZQ1MZRwwZ6cg/oSfZC4JDjsysw+y0ASa3Z1IX3RIZr4P5FR+RCiGmiGiEtFjasS7YlH5P8AZYOwjsI7COwjsI7COwjsI7COwhJ1d0EifZwXwIsDQ0sG4NDKX9JEaVUOaHISOJL1Fb2YSsSQmkIGQ1+4IYAmpaa0JRm5CU3lwEocXIDUlD4VJBiEVJTdCKjahSQQFy1xF11JTRkOsVhjRPyMYpUKBZ8j1kibGRu1D07kCv2DhpZqyCRRqobIL5pMuvUkjd/6RzJ2nUlqnYR2EdhHYR2EdhHYR2EdhHYR2EdhHYR2EdhHYR2EdhHYR2EdhHYR2EdhHYQu2qicm2Y8Lsb4JciM4pwKwbCAP5lmlWBGrpC5dVySNB1RO1eJG9b2iQhhUTSo8BsthZKoJDcYUGRYWi784EzkTAgtillxiLCQIreKKWWl+FFSKj3wm6j/AAvIctMnYR2EdhHYR2EdhHYR2kdhHYR2EdhHYR2EdhHYQuyVPRg1LWUUEr+cxBDpOp6ITaqlfcRWnOIDricJyxNImQMLWlO8EMWO5pMnMZiK5yA6byEetuYIpkx/g/pR/wD1ibWXcQZU3payEEFKViORoZY1C+2YodVFlHAdMqMuJl7KyjFbGIrCaMVoW+R01NGMkqjHXYquMKuJIWHyGgGTQphgamt4HYR2EdhHYR2EdhHYR2gIYUktF6WIsNSdHxDZJzkFzR1rMS0iXCliExtun6IUQQahqgrAfRDH4bktzzBy36FaJL6IQlhXyRLtGoNVEEEKZghHRcR1iQdmHqzpoEiVEiGCF6rZMm2Y8KSWlRpO6k7MQlYhKx1zERewAv8AE5JEK5CudcQ64qk5L9DYmukR0m/kZCZCIWnh6j/Dcc+ihK34T0pP4GEtPmvxl0Co6kQkWITHeIyFEEJCTZIhj8dXxHKfoSrIvohMQkJKFQhYJSg+GRKkL8JEHOQMJJ5aOzDo5BKaoWkkIhhQQteFd2ybZj1fUf4bjn/ge+ZNsx6vqP8ADcc/8D3bJtmPV9R/huOf+Btql0F8FqSp9016tuE85MxTshuvn/gbSah1RfuLJ8DPyVHqURMzERMzEzMzETMzOVB6xOyICIKEv+CzZ2VM7WO1jtY7WO1jtY7WO1jtY7WO1jtY7WO1jtY7WO1jtY7WO1jtY7WO1jtY5wAQv+vf/9oADAMBAAIAAwAAABAAAQgAAQgAAAAAAgAAAAAAAAAAAAAAAAAAAAAAAAAAAAAAAAAAAAAAAAAAAAAAAAAAABQAAACwgAABQAAABSAAAAwAAAAACgAAAAAAAAAAAAAAAAAAAAAAAAAAAAAAAAAAAAAAAAAAAAAAAAAAAAQAAACAAAADSgAAAQAAACAAAAAACgAAAAAAAAAAAAAAAAAAAAAAAAAAAAAAAAAAAAAAAAAAAAAAAAAAABAAAAAAAAABSgAABQAAACgAAAAACwAAAAAAAAAAAAAAAAAAAAAAAAAAAAAAAAAAAAAAAAAAAAAAAAAAAAQAAAAAAAABSAAAAQAAAAgAAAAAAgAAAAAAAAAAAAAAAAAAAAAAAAAAAAAAAAAAAAAAAAAAAAAAAAAAAAAAAAAAAAABSAAABQAAACAAAAAAAAAAAAAAAAAAAAAAAAAAAAAAAAAAAAAAAAAAAAAAAAAAAAAAAAAAAAQAAAAAAAABSgAAAAAAACAAAAAABQAAAAAAAAAAAAAAAAAAAAAAAAAAAAAAAAAAAAAAAAAAAAAAAAAAAAAAAAAAAAABQgAAAAAAACgAAAAABQAAAAAAAAAAAAAAAAAAAAAAAAAAAAAAAAAAAAAAAAAAAAAAAAAAABQAAAAAAAABQgAABAAAAAAAAAAAAAxjgggQwgAQwAwgAQwwwwwwwwwggAAAwiQAgQQAQgAgAAQwwwwwwxgAAAAAAAABSAAAAAAAAAAAAAAAAABSjDBBDCBAADDCAAAAAAAAAABCAABAADgDBDABCCBCBBCAAAAAAAAAAAAAAAABSAAABQAAAAgAAAAAAAAAAAAAAAAAAAAAAAAAAAAAAABQAAAAAAAAAAAAAAAAAAAAAAAAAAAAAAAAAAABSgAABAAAACgAAAAAAAAAAAAAAAAAAAAAAAAAAAAAAAAAAAAQAAAAAAAAAAAAAAAAAAAAAAAAAAAAAAABSgAABQAAACAAAAAAAAAAAAAAAAAAAAAAAAAAAAAAAAAQAABwAAAAAAAAAAAAAAAAAAAAAAAAAAAAAAABSAAAAAAAAAAAAAAAAAAAAAAAAAAAAAAAAAAAAAAAAAAQAACwAAAAAAAAAAAAAAAAAAAAAAAAAAAAAAABSAAABQAAACAAAAAAAAAAAAAAAAAAAAAAAAAAAAAAAABCAACAAAAAAAAAAAAAAAAAAAAAAAAAAAAAAAABSgAABQAAAAAAAAAAAAAAAAAAAAAAAAAAAAAAAAAAAAACAAAgAAAAAAAAAAAAAAAAAAAAAAAAAAAAAAABQgAABQAAAAAAAAAAAAAAAAAAAAAAAAAAAAAAAAAAAAASABRAgAAAAAAAAAAAAAAAAAAAAAAAAAAAAAABQgAABQAAACgAAAAAAAAAAAAAAAAAAAAAAAAAAAAzzzyxzzxzzzzwAAAAAAAAAAAAAAAAAAAAAAAAAAABSgAABQAAACgAAAAAAAAAAAAAAAAAAAAAAAAAABAgAAAAAAAAAAABCAAAAAAAAAAAAAAAAAAAAAAAAAABSAAABQAAACwAwgAwgAAggwgAAAAAAAAAAAAAAAAAAAAAAAAAAAABSgAAAAAAQwAAwgAwwAAQAQAAAAABSgAABQAAACTxhwyxhAizxiAgAAAAAAAAAAAAAAQAQAgQgggAgQwBQAAAAAAABDQQjiwxSTSTgAAAAAABSgAABQAAACABBQCATTRwQABBCDDDBDCDDDBDCDSAzxDygAxShzAAQiDBBDCDAACTDyBTwCBABDAAAAABQAAABQAAAAABACADAACCCAAAAAAAAAAAAAAAAAAAAAAABAAAAAABSgAAAAAAAADBABCDCCCAAAAAAAABSAAABQAAAAAAAAAAAAAAAAAAAAAAAAAAAAAAAAAgAAAAAAAAAAABCAAAAAAAAAAAAAAAAAAAAAAAAAABSgAABQAAAAAAAAAAAAAAAAAAAAAAAAAAAAAAABDgggxAQggwwwwxCAAAAAAAAAAAAAAAAAAAAAAAAAABQgAAAQAAAAAAAAAAAAAAAAAAAAAAAAAAAAAAAAAAAABQAACAAAAAAAAAAAAAAAAAAAAAAAAAAAAAAAABQgAABQAAAAAAAAAAAAAAAAAAAAAAAAAAAAAAAAAAAABAAAAgAAAAAAAAAAAAAAAAAAAAAAAAAAAAAAABSgAAAQAAAAAAAAAAAAAAAAAAAAAAAAAAAAAAAAAAAACwAAAAAAAAAAAAAAAAAAAAAAAAAAAAAAAAAAABSAAABAAAAAAAAAAAAAAAAAAAAAAAAAAAAAAAAAAAAAAAAAAAAAAAAAAAAAAAAAAAAAAAAAAAAAAAAAABSgAABQAAAAAAAAAAAAAAAAAAAAAAAAAAAAAAAAAAAAAwAAAgAAAAAAAAAAAAAAAAAAAAAAAAAAAAAAABSgAABQAAAAAAAAAAAAAAAAAAAAAAAAABizCTiTjTyCQRSTziTxywyiyhzwAQAAAAAAAAAAAAAAAAAAABQAAABQAAAAAAAAAAAAAAAAAAAAAAAAACAAiBDCBDCBAhDBBgBABAABARCCBAAAAAAAAAAAAAAAAAAAABSAAABQAAAAAAAAAAAAAAAAAAAAAAAAAAAAAAAAAAAAAAAACgAAAAAAAAAAAAAAAAAAAAAAAAAAAAAAABSgAABQAAAAAAAAAAAAAAAAAAAAAAAAAAAAAAAAAAAADwAACgAAAAAAAAAAAAAAAAAAAAAAAAAAAAAAABQgAABQAAAAAAAAAAAAAAAAAAAAAAAAAAAAAAAAAAAADAAACAAAAAAAAAAAAAAAAAAAAAAAAAAAAAAAABQgAABQAAAAAAAAAAAAAAAAAAAAAAAAAAAAAAAAAAAACAAACAAAAAAAAAAAAAAAAAAAAAAAAAAAAAAAABSAAABAAAAAAAAAAAAAAAAAAAAAAAAAAAAAAAAAAAAAACAADQAAAAAAAAAAAAAAAAAAAAAAAAAAAAAAABSAAABQAAAAAAAAAAAAAAAAAAAAAAAAAAAAAAAAAAAATiAgAgQQAAAAAAAAAAAAAAAAAAAAAAAAAAAAABSgAABQAAAAAAAAAAAAAAAAAAAAAAAAAAAAAAAAAAhCDAAAACCBSQAAAAAAAAAAAAAAAAAAAAAAAAAAABQgAAAQAAAAAAAAAAAAAAAAAAAAAAAAAAAAAAAAAAQAAAAAAAAABigAAAAAAAAAAAAAAAAAAAAAAAAAABQAAABQAAAAAAAAAAAAAAAAAAAAAAAAAAAAAAAAABAQwQQAAgAijCgAAAAAAAAAAAAAAAAAAAAAAAAAABSAAAAAAAAAAAAAAAAAAAAAAAAAAAAAAAAAAAAAACABACDDBDAAASgAAAAAAAAAAAAAAAAAAAAAAAAAABSgAAAQAAAAAAAAAAAAAAAAAAAAAAAAAAAAAAAAACgAAAAAAAAABSgAAAAAAAAAAAAAAAAAAAAAAAAAABQgAABQAAAAAAAAAAAAAAAAAAAAAAAAAAAAAAAAAAAyQQQAwQAwRCgAAAAAAAAAAAAAAAAAAAAAAAAAABQgAAAAAAAAAAAAAAAAAAAAAAAAAAAAAAAAAAAAAChzCjBTDTgxxSgAAAAAAAAAAAAAAAAAAAAAAAAAABSAAABQAAAAAAAAAAAAAAAAAAAAAAAAAAAAAAAAACgAAAAAAAAABSgAAAAAAAAAAAAAAAAAAAAAAAAAABSAAABAAAAAAAAAAAAAAAAAAAAAAAAAAAAAAAAAABCAwAAAAAgSAAAAAAAAAAAAAAAAAAAAAAAAAAAAABSgAAAAAAAAAAAAAAAAAAAAAAAAAAAAAAAAAAAAAAAAAQBDDBCAAAAAAAAAAAAAAAAAAAAAAAAAAAAAABQgAABQAAAAAAAAAAAAAAAAAAAAAAAAAAAAAAAAAAAAAAAAAAAAAAAAAAAAAAAAAAAAAAAAAAAAAAAAABSAAAAAAAAAAAAAAAAAAAAAAAAAAAAAAAAAAAAAAAAABSAAAAAAAAAAAAAAAAAAAAAAAAAAAAAAAAAAABSAAABQAAAAAAAAAAAAAAAAAAAAAAAAAAAAAAAAAAAAASgAAAAAAAAAAAAAAAAAAAAAAAAAAAAAAAAAABSgAAAQAAAAAAAAAAAAAAAAAAAAAAAAAAAAAAAAAAAABSgAAAAAAAAAAAAAAAAAAAAAAAAAAAAAAAAAABQgAABAAAAAAAAAAAAAAAAAAAAAAAAAAAAAAAAAACgQRgQQQwAgAAAAAAAAAAAAAAAAAAAAAAAAAAAAABQgAABAAAAAAAAAAAAAAAAAAAAAAAAAAAAAAAAABCBDCSCADiBDAAAAAAAAAAAAAAAAAAAAAAAAAAAAABSAAAAQAAAAAAAAAAAAAAAAAAAAAAAAAAAAAAAAAAAABQAAAAAAAAAAAAAAAAAAAAAAAAAAAAAAAAAAABSAAABQAAAAAAAAAAAAAAAAAAAAAAAAAAAAAAAAAAAABQAAAAAAAAAAAAAAAAAAAAAAAAAAAAAAAAAAABSgAAAQAAAAAAAAAAAAAAAAAAAAAAAAAAAAAAAAAAAABQgAAAAAAAAAAAAAAAAAAAAAAAAAAAAAAAAAABQgAAAQAAAAAAAAAAAAAAAAAAAAAAAAAAAAAAAAAAAABQwAAwAAAAAAAAAAAAAAAAAAAAAAAAAAAAAAABSAAABQAAAAAAAAAAAAAAAAAAAAAAAAAAAAAAAAAgQABRwxzQAgAAgAAAAAAAAAAAAAAAAAAAAAAAAAABSAAABQAAAAAAAAAAAAAAAAAAAAAAAAAAAAAAAACAAABAAAAAAAACCAAAAAAAAAAAAAAAAAAAAAAAAAABSgAABQAAAAAAAAAAAAAAAAAAAAAAAAAAAAAAAAAAAAAAAAAAAAABSgAAAAAAAAAAAAAAAAAAAAAAAAABQgAAAQAAAAAQAAAAAAAAAAAAAAAAAAAAAAAAAAAAAAgAAAAAAAABCgAAAAAAAAwAAAAAAAAAAAAAAAABQgAABTjDDDAiDDTRDiCgSDiDADTSjzSDjDzTCjSABCThAQjjAQgBTjhzTjjTTQwiACCSAjAzjwSyDzjzQAAAAAAAAACADAAAAAAABABBCAAAAAAAAAAAAAAABDABCAACAAABSgAAAAAAAAADAACBABABCCBAAAAAAAAAAAAAAAAAAAAAAAAAAAAAAAAAAAAAAAAAAAAAAAAAAAAAAAABSgAAAAAAAAAAAAAAAAAAAAAAAAAAAAAAAAAAAAAAAAAAAAAAAAAAAAAAAAAAAAAAABCAAQwAQwQwwAwwAgAAAAAAAAAAAAAAAAAAAAAAAAAAAAAAAAAAAAAAAAAAAAAAAAAAAAAAAAAAAAAAAABDADABCACADABCAAAAAAAAAAAAAAAAAAAAAAAAAAAAAAD/xAAUEQEAAAAAAAAAAAAAAAAAAADA/9oACAEDAQE/ECeH/8QAFBEBAAAAAAAAAAAAAAAAAAAAwP/aAAgBAgEBPxAnh//EACwQAAIBAwIDCAMBAQEAAAAAAAABESExUaHwQWDxIDBAUGFxscEQgZHRcOH/2gAIAQEAAT8Q7K35TclUdzL+u9Wl33DjqQK/rUsmk81Su7Kl3Ik0kEnIQPMOCa9u6iw6MmXsISmxbCnuG0j25JEgCJDsnVEP0OT7a5b0PCUiktNGFdRZxI97qRvmHOXKzbedL0JPHpaWl0FQp2athZFCdwt1hCtt3B3kUsUwYU8lpSWfbalZicTiL465BRhHG/HtpGmX4phR6gmHpSEwu91I3zDnKl4b5OzE9J5CXuPxuZNSgsphFCXcWEFhv0G4jhVtrsRuVIl/IwmtnvC7cE24Usgho7cJNuPxNpO/fW2LDnMNc+e7w3XM0PueB8RjVsWHOZ65893huuZofkBz6r8mxYc5vr3z3YG25mh9zDuWwJ771X5RsWHOYa58nAd0N1zNL8gA/Zsm34c5pr3z3eG65mh+CI0Kz37DccOaqO5TXPk4DuhtuZoPguNCc997tk3HDnMdc+SrugbrmaH5Czftxw5qj3L1757vDbczQ+54LxAdW74c5prnycB3Q23M0PwRMae/w7FhzmGufJT3UN1zND8hAsO44c5nr3yUd0jbczQfIKT37KNtw5z/AFz5OA7obrmaH5ADezZRtuHOaa9893htuZofc8F4cfsWUb7h2FB+wOZIprRjcYiwhNfvztYx5i3+Du5Ij+Yh1z5OA7obbmaH4Im9575lqItDs7teqSDrk65OuRLgaTpRNF0amPPsTigwr5djr9eVoSALcGgKJhF5iz8JbzerKyyLwUWVAe+XSisw35mkU9i9XYqf5JobImhemGQnpiZNUhdg2uHQLMv+7xJTi/CqkgQhM3jLJILApvgpRV5OkmeuVJeAkwCXRFSjE9eLg43s4hcLM35YqYPVMjq065OuTrk65OrTq065OuTrk6tOrTq065OuTrk6tOuTq065FSiTCBOUn2rAlynCkWMyrTB1adcnVoiZVS5cZK8wLgxnyDMS7ZXr+ImCGJ2HXoZDj0B3T2LcVFiUajehPGRdRLkm3y5BSdmPtpJ1Fgz5O3Ni7sgu7gXRR4+gE00KpId6DZij/PVhMdp4qNFrOx/q5HHux6lFGaEYoO96hY1wf8T8VVYcWoBVhK77Q/75t54nt5IcCLnukOxJK48mSx1ydcnVp1adWnVp1ydcnVp1adWnXJ1yIdztwNc+e7w3XM0vwVdnz4NyJWWTl6TaRwZYPqG41Brjc0G2pLLgy4Ata0eRBpCptqzBNvuWX7Cd/lJRCZVSTJhZoV2SRZBBUz3Rcs6BFXv0KirJuQDxLCYiuRq4SIZkpM7RDaKIAThbqOLA6gkSJov4MhZPkxQ4hLdKaIrA8ZEJZRUvSGRkBRJq1QeA+1Wq0KClubJrsOsnR0r4WbQitdrdcGqfPY9YeqoqCcBF7PFX7MkyRwaUYmj3FfOtENIpmXJxkE2YdFUWBHFDQ1CpqjXYo5eXIMEiq9m4Qh6NX3CA/jlFOUmN15VdhVgVfWSgpgEVzRMVrYbIjqWVNMQnl3ZiGhtCmYR1o69ON7aipI5UEtxFAkEhRgWbcI557LxnPxRyEoCMUdWcyHk4hRaiJWF4fXvkog7obbmaD4JtPg6S/WEVNF2siJTFpE2SQl5dS4LPt2tlwbxnsJLjFQmhaJ4QhIb1Wr3mOufJwPdDdczQ/BdlyG7fyFn27W3YNU+fN9e+e7w3XM0vuaO5Hb/XkNnB6Sz7dquTcxqnz5vrnz3YG25mh8qsnV7Ys+3a3HBqnz5vrnz3eG65mh8qyVQvQWfbtPEexjX/ADfXvnu8NtzND5VBrTCz7dpZ31Rr/m+ufJwHdDdczS+Veo0cs+3a3rBsGfN9e+e7w3XM0PlXvlhnpNJ2t6wa18+b658nAd0NtzNB8Fvc88h0vKz7drasecUa5893huuZofKrGpYuVrtb1g1r5831757vDbczQ+VQerUrxLft2tywbpl5vrnycB3Q23M0PuaOTM9V7IsdsTesvN9c+RY7qG65mh+CDRyH2nFn27W9YNiy83175KO6RtuZoPc09yLxyFyPfEEj4kHUk0MrLCbp2VLlcsW6S2g2mk7orhUY5qKFR9QvNtc+TgO6G65mh9zTyWLlseCZVUEpKjGzChSVDrVdlZMsoaIBGRX2lS82bVIiAvRhLzbXvnu8NtzND7nheRFrsBfs60dSOpHWjqR1o6kLEAOIgRVVCUnUjrR1I60dSHVQvNSmhqEo4p9A6kdSOpHWjqR1I6kdSEyyP9+Xa58nAd0NtzND7muhbuXYs+dPdkbxVKuHwDv/AKcpynP0/T/6Ycq7n/6fp/8ASzoYRQotUXlt1z57vDdczQ/BQ2LPnMwY0LIbXrcfXTxcGEhBvWDWqoeaT8s175KIO6G25mg8l5M5xHVbC+H4tEikp0/28tktc+Tge6G65mh8mBwvuOPi93y8tn1757vDdczQ/BwQ8tb/ABbPYjhqCC2R02FKfhpE3DV9C8STQBoIV41CUf8A0bPmVmIbPCd9FhpeSnQ94Fmob+9BTeeeiistFdVWN6lYZtvEPdQ/ppMS0Gjl0pkelkvTEhZEvo+EHwotVk9CAIvDUx/yhQRMFsrUpEAmqg0DQFX8RPyBfccfF7vkUd+p88Ok8UE2oeY0kTYXyrisFGSGECX6bjCMi1YUqgWUuUEkUUBq9EOwmFTWjr4W4g+IpXb00CmfENaJKY8NtSLBs7AU5cIBCI4tUxWYXL8Uyj3LU2hSQJSLwQ0RYkc4mtTNJoTNL9oIjk3fiFNRi3N0Sxhoo1qiogjaZowiQcyn+dc+TgO6G25mh9zwvdKHxabIZad0DYc1Om1bVJxpo6sfCrcKEVKxlNq2PIlqXp0gpGsZqy4Duiv6J4R6LrwFRIVQlPRLERcXK/b0CLDZHkbOCZPE1KftV4n6R/tlCXtDtCT+dMcXdEPuBrr0OUqpJkcc1JVDnihec0ZMvrjSbIHW0n2cuBkyzp/DPEXSBkvpKEityKM+QL7jj4vd8vAdK3El0l+ibcLBdA4X4FOoqWt2MDjJRpInvEoWWRU674guNUqT6aQ9g0+wP0JZZbQbx2y7iqmG4JBoooGYXMzFInBxRmOwKJx0vJpYnd0LKMOx3lEyK1KkIGJdUFzEJS0uqFAW2h1Af6vwE1UFvk7YoQ+WXZVEs/xOUBR/bO9sJsu5OpfAnXU0osiHsjTJaP8AOufPd4brmaJ4IKTuKloFxUy4K8qR6+Sz+oFythEQX7E3BhEyRd4xvCQDQ104L11TVtnoa0ugo/mS4H84lESPUHNOP4LlRrENwisjZilJj6IcP6WgNOEiNVNB8yv4zRV+j+qNmezyJQMk0Q0ajYw/hGF+hKDITgF+0MlZKEhF8+5cP6WWzCEvIF9tx/DWmGS/gquzQIlM+jKSV2CVMQTG80vVWThGHAcFx3EYPOQHViU1c9wtxOC4GhVcnpI1szSETuKKRvcMPNZFUYTlFd14ILbXtOwjQ1Y1+pWHER3Sk60KGqtUXIX3gesI1ZZEkVs00vKZg99/x+d3y8BahWklMfXI5iITJLi49w1vHgn9QeiYi2pEhxqKX6H1+XT/ACGZv3UTQ430CRORoLPEuDwVu0bhpdxVXiKwaLtxMBwOzDq2z+BP8oUs+wT3qlLP+htFDgsbv6MFWWIKCETSduXH+R6mRGpE5WZIo3yPQl2SCpe5kn8CSGIFlLBWRUzH9CFSSEvzrnz3eG25mh+CDjlSWEdSXpy+w+gOeWkQ/EBl46sCPoV+Pn8FfaiDAW1mNVkRxF94sKFRuT7DBwKK4k519GfvQeomTH9E8YrrlEJ7wgdfHj1D9EJLLGPjooWQw7J5c/cem2kx3h9iB92zTZ/H3TF+fnOmL8fbxfnL7eL8fdMX5yc3i/H3TF+Eun/9/KX20X4c6Yvx9vEbRfj7pi/H2fRqIvO3p/G0YFVo+0RN1FIZ76h2xrfAZQYlEjwKRJZPI6RTdRqrI4pdClQU9JlJINC30y+/Vg5iqFFpUj21UwkKNxqAIUd96p1IQW0Js+p6DThVivgwokI5KpCJXQo1Au2xHUfEoT+aNq4j2R0X53PIVtLBumL8JbhflzLpi/CnTF+Pt4vz8p0xfj6ANWHZmP8AIEUz+2QXEpdYE8nVaOBcCRrCcE1pDlOGKg3JajwApzEEnXpnj00fH7hFUySHsLBqYpGhJ9hEVf8Akb6GA2SaSTLN+S0GtdSX+4z1uEw+wySL0wlXEPIiUJNoi1/JKNRdvgo0kT3W65mh+HCr3lxCDWOHtx4/1KLkQR+ig6LXqa3YdzOuxx6TFHr6OkiS6skkRvkORqOcExM3CxiB3SoxdePUXMMbXNzG4C/k58mCkyMqDhReTI5JaSPuOP4Vaw0xHlaHqcsWSqPKoXnNPhRo41gIUGl3FdTrujhgNnQtHQRbI4kijq9xSKsbidQRyExHdTEOQAmaP3bki4+8ol2vLKsiwIcvSDqx0lg2xLcHJ+Of0XX8y0Oy2TuHoGcVf58bvl4V6YA13IhXSaGWw5ZJp063BP8ALr6ziM0Heok6zVTxF+oqHlsER/kZcw7FwalCxZvOaMTGcnwqrCbSmbJkQpbSiLnjF86YQeMx3SmbQZJHoq0z6Ssl4FKwv7s+C3XM0Pw/FIVhywe4kOY4X0DY1PFzBUi3oPV7zGbMOEv9y92ohFRZzGbkWSCFqewX3eEv7ENULKM0W1Tm2T4LK4MMXqjeUgliDKkwKjglVCjiSTAypKYYustRR/QsQsJQl5InuOPevCU1Q0xaTTZLvd/y8K9H/Ult/QRWGFLT6M4Z3BUNrDaHvQJikFQRtoTF7Aic5Lf03bFgEhC1/QpQEI1+xEdzNJZ1AUxBIXNlgcMHfP3Fn4ZtP2cItEOU9CFtoLaWBiOyekzu2ezg4vBbbmaHyZxfccfF7vl5w9uuZofJhV9xx8Xu+XnD225mh8ll+qowQFUk16IvFuCsttCsxwRDRe3m5tuZofJfUaJEcJQ0dRR11YbFl3qU1PuE01K8C2rXi0D6Vl/NGJCSkGYV/N91zND7mjkPV63hLT2mOmLn/UnTp0SdOnRJ06dOjwjqGsIblI0sYcHRJ06dOnRJ06dBkoDURkujTo06NOjTo06NOjTo06NEuun7pkyEH+vnDbczQeVKJKd0yzx83t6vkNuuZofKlathWaT5e3oeQ+25mg8qFSdlWWu1fJXbbmaHyoXecjVfL29NyH3XM0PlQiTv6h4xu3NByH23M0HlSu8ZFOJyVA3XM0PuaeS12zIpVjkqDuuZofKl96yLPHJQDbczQ+VK17qoscdsabkPuuZpXKld9wIQx25o+Q+25mh+fMfRJZkh2QdR4wN1taMRnS5rkKiCLImPPRBKx/D/ANBC6VmVI9MYpbNQ5ESgMpJWk3hYmzCOL1OpDSiaSspPSySUyVEjKEHhqIJb/Qa3DU8SNThrftEAoYclDGZtuWlUaCmfeHAzhxhKz0oElEACykZw49FZbZ+w8EHHETfvs0NFlZWiviIolLlwPVSCRnQ5osqJv32aDKGn6KOIb+qImiMycjyGvoIWNrFiR6YxS3+GUIP1Uhs5wgTyvyhlGfcSJzhOfuX+F6iRJTTQ0KWhe40yIspGTUpyvKt1zND8+DWVE8SolNGpQ2SRTThiQPkDGgbYcyt4Uu9N3SSrEQd2bVLgGgGNUhI2xxqMj/f6b1gJWVtLSXdGLfY5v7f0puUGdI2ZnVV762shL0KJMQ4uyQVlES7HuFLMVPkbKDYxYCBogpmJYSoUGDnchaSmGzSsMTHeZnIEMTIMRVV0RJkvqomgI5Vok6vQaZM7YK2K5FVAmvtprUQ9v2N8TEoQvFbVkj88harwiCEeenpWTExgGxo8lQmWhKyTgd0BJxf5yOEmybh7kgnfbSihxE8sqELHcprmWYne7EkxFkFqmkGqLaUsUFPL5CVovi2ep8DEwhZ1D3vj0Ez+k/LaJztBzFHGS1aNfQJQ8pKwj96RVqIIJD0tvyrdczQ/PqpFP3eKHbsKhzEF/Xm/B/1LLegJDb2mN/SgzWzHhci7uopf42FGNNCUxSSPHZKl4ZFuAhsKDpurq4Xg+FCC5TVZCIBx9R0mGbEdGqhMOdR7S8MSR+b1l2JrCWMyTLNgwlcB/wBqwIxFR10nUYB35ZUE0HKdPRBVjTEmYHs8OMqoDaBOKKHeBJpdxU5kx404qdRBEmZDJEjCzylV2iOZARE4jkLG/wBUCErOAoCBKJxCQWTUWGJ+bIX6ogKguB7ilORC6FqFHtyNzcAiggmHpBBZtasChTaRWLQR5co2yL+/SbHR3++YcKjmzRSdroUhFZriLckhogcMIc9JRBRKI9QsqHcjZVwOAvYK7oJUKviPKm25mg8hVWouEqr7Ed9LQhgcD4bXcPbWvp4HCXmW65mh8qLr2lCwx23S8h9tzND5UrtGC3x22+9OQ+25mh8qVr3VBvadt0fIfdczQ+VK1e4+C3x2/Q8h9tzNB5UYsr9Y3sO26XkPuuZofKjEhev4GjC7ZpeQ+25mg8qM1YaMbtmh5D7bmaHyozTMssclXd1zNL5ULdORTgFCYnsyaMw5C23M0HlTvGi/qJc4TK1IgxTwDp2VfKLlFcSr4rYyzytEFwFyFuuZofKha/rpXVQh9Tr/ACFlMJWXZkENs4pjezJLE1CEdCMJchbrmaHykxG3EUcCXoQ0i+qDxWcJkkTN+zBfOcasvAmSj7IlKn8ZUXgw3tolJ8A9I+bFckSNY4z/AIYw4ep2i8+bbmaHyezgiTJIpcSdtH6iuVmUCoRc1FyKpFg6KCiSXctJjuH7oLjjoZGZZiBX191JuwSWXsEmjmWXne65ml8nFmluGuGZHtkMiencfwbk2M5EgchQMA8enC2S8623M0Pk7vGSuKR7rw7RJLBunosPzndczQ+TSuw40uJE6zCzgS9Ka8Kp6csQkirpJ17CRpfx5zuuZofJt3Yo7o+IUE3ZqcANDWwi8jXJkp+BeWpCltj84dXyWHCDst7RV5u2aP8AHnO25mg8mhdhI/BO2EXygGsfdBUpMsIC9SPFF80LPY+SCvH7KTf7dlrur9jTdfup7/qQ+aZiByPBEmTBQoNFqubRG7qv7wYlBCVm0v4853XM0Pk2DsU9knDbh7hnshSf8CihzYaKEM55LCTEo+H/ABC/zcSsLfRR8ApE3ozuZVxUsBalB2dB/SNo1vqOzBOZqPb/AB5ztuZofJsnYSPDlOIbR/OdtzND5Ng7CR4fEUzFo/nO65mjfPJonYp8OVE5tH8523M0Hk0LsbVn8NVKNuk4jWl2RkmSlbivBrI7R/jzndczQ+TQuwkfirkXVHxY3PSCiKfXAKyEJDGQCrjYCmSnhgj6+DkxJ+h37oYfEFkThl2JkkjxBrhcgGRIjiNwZiVtiVJtzEY3+gJUs7TCFIJrEoUSRG7AUSRWjUUvI61D8QTmbR/OdtzND5Nk7D/gLhe++qFLoCllBQi/z9iOVwKv0BoCpK0J1Bm5YRu0vkQq2tQqE2Hhg+KmBv6aXokPZGNxCnpEdKwb8a8dq8FWMZIGaH+KcQJwufrV4kj4hMsNRAdLh2LrRC9EC/0Krx8B/iVA2j+c7bmaHybB2/MoTcwNSNigUYIgswoCWFJF6iqJFUg9TYqzciERCCHRQbKtChQowJY9uQhREUIUQerHEiKmr2IgJJWQkl+IVR6P5zuuZpfJonY4HyWvDq0z3IQNL+POdtzNB5ODRW/Nvimci5IuPR+FacIg2CvM8ReIpJEl5zuuZofJ2VROheUxiX4gYM7PiSIEaFZtP14FO4hwaf8ADiL4QGbRNK4lZJPCS863XM0PlDabnxKJmbjVjhT2JiLDzhmynvfRKX7ITToYRz7Epo6IdLjTdf6mokgvn3dTUDPvhnP4/trQwvpBSi0UiF6lauWZVxvPNtzND5U36TEQxJhslVpChs1XENkzUsyNYeQ3kJJmucC1CO5CA1wNZYZFEFemiEvP91zNL5VVt2OSpZ23M0PlX+/Y5K6HdczS+VZ79jkrgd1zND5V3tGOSmB23M0PlWW045K6HdczQ+VV7rjkoIdtzND5V1u2OSg523M0PlW+3Y5KKHdczQ+Vd7djkoodtzNB5MnwOgAkaov/AHE1+cCn9XbuV2qR8RQgRehySHdczQ+TL+4yODPl1ZTKaR46FTJMeaaoVBucDo8CKQEyEWtZg7xQ8iVmYSo8ClrgoUnaugTki4TGfuaPAAe2CRNgNDKW0FdzNS7pJThxyVSVFNhUpSt/o56yFrlpki7RGMJIIqbvulQLTOUHJit55tuZofJs2JdZzYtl2FuSZCEtXKzBXEOEcfd92G1E+qMsSzYiMBM+Tj4EaLgRlUQRxJkkT9NnNZXhCuGlMo6wLrNg5OIgXfrXOaDUFzf6UiETXar1vchIncSoUJk7giNlVczpr6lTsSiT87US1UYw7jylnnm25mh8q3ZWSpdFwFaiDpcuHaZubYuQ91zNL5VvtOOSsh23M0HlUW045KyHdczQ+VZ7PjkrId1zND5VFs+OSsh23M0PlW+z45KTndczRvnlUWz45KxnbczQ+VX7PjkrId1zNL5UGhJaBk0qp/GOm26IU01K7CfAxLYODhqIOZlEJw+Qt1zND7lZPJZBLs9EuiQwt1vLp4kMpCdls3HsYOtua/sMCGiE/wBEkb+QttzND7mNG/IakQMxCQmk8mOrv9Ovv9Orv9Orv9Orv9Orv9Orv9LWRy4edCRvPX/+nXf+nXf+nXf+juoH2upeRAoLSiBJQ/f/AKdXf6dXf6dff6dXf6dXf6dXf6dXf6dXf6cQljDgVoI/ON1zND7nKnkIStdvcEh5/VAUAsmUJA6XOlzpc6XOlzpc6XHgNMrVhODSi0SOlzpc6XOlzpcQA3EanS50udLnS50udLnS50udLiLZw0BUsUkQ+JRfQIcU/N9tzND5L+w6RfZ4FQWullE34tVVUafpU/h8CePN9tzND5MInuOPi9/y84P3XM0PueBouQ9fccfF7vl5w9tuZoPc0ch4vuOPi93y84e3XM0PuYqHu1klLcIrRWx/7C2XTWV5svuOPZYIHbEhCbb8LK8Ks7erwZ7OHWGq+ySZEnPkm25mh9zJj9+HdmWAWWWAAWWIhZCqyyVrVCdRWgJiR1014DsqGoUltf8ABsDi2K0cPjCm2XFBdMCJm140aboi84nCkTeS65sxZrKFDLsmFnw5oOzxUy0frYMtEi2FFdUzgjyegLQ+Hwou4fk9zFgPXsYg1GXKQqBdoRD/AIEksdoHG3KPtIwIVStu0ZxbpIb7KcDSUwS0epXaBBf9uEfdyRXfwKyywCyywACyyByyyxoAodnLLLAGr85ZZBYQHoVg4+P2kuCY7FZUTHfgapRM78YERp1ioUK2bQGUVIWBiARJokNuGEQok4Jr3gKTP6YDsSBIk3wgJTkkqJHyipSU4OCRGLmssKpH4auqnKklO9WfZEgZ+cIhvKq5LugLLILALLAGrt5ZYABYZLaGG40TzQonlehcaBslkjGlB9U0ghVT2gElqUk83BTCIcFSX1sAEAAPkRBhrsWSh/c3EIHCnpabww/DkUhhTQOVSE6KVUFkOFKvyUpXbYEBrbpEWC1NKYxc3a9lj1mWRRm4sSJYWVAq0yYSgz/EoRZQ2VLKIg1TgqziqwwClDVxB99xWl5wqJsJE+4HALLALAFQ8kmRQVJ2Ew+5jaRaD5G2fo2z9G2fo239G2/o239G2/o2z9G2fo239DEVkXB/BzQpHZM2VZSjYRmU4FCvOmSM7szWCCoCSo/nVW25VF8Oi8Grzjh0HjRsNtDB76NkiQfLoVE01hCDXZyw9RkcsonA3OQkrUkhISpi9A0xIyEGJIhdrFMY/wCrMIVcrv3fQm+m7EbmmT7HySSrIWaDDpumWPMxPM5BxnJjcVVydtDU3L0JfsbOmpIrpiTTHQVBms5Zu4UhvPxrI239G2fo239G2fo2z9G2/o2z9G2fo239G2fo2z9G2/o2z9G2fo239G2fo2z9G2fo239G2fo239G2fo2z9G2fo239ECetAzuOPZYG1fXIIKcXLTEWy1znsR4riq45BA0cGP6kiTgCnai++Q52ocPILU1KKojI740mqSJkS7SCtkcWcbA/ywj6fdixlCWpibletlLbf9E1hnHpVS4h50XT2d3yF53U5jbP0bZ+jbP0bZ+jbP0bZ+jbP0bp+jbP0bZ+jbf0bZ+jbP0bZ+jbP0bb+iwy2JZ/Ql1VzkFRtMOIIhpsxqjH/vzrUQpQYMeTcL7gv0rbHZfINsK7SPyiIbA3iZqDEdkKryT2bpgKwEkXLTggRopDVP8AQhDjJn70HlESfKfyJ1WPARxJbeZOICp94yCuxCyq4EWTpJDjkX1gs9lSRojefYMi3J20SxWh06QsCZPWkt7kLTinxZk1QHGnKwlFzT5c6M9OqDkMNKQ0npm2fo2z9G2fo2z9G2fo2z9G2foSrbT0FuxZEJeEaTUMSUIkISGpQ7bcu7WiQHkWf6Mm45siX4pUqVHoO4SYwlt5aHCFGBwseEUFEIsJUWaKWp+PXPpWyk1Td6BxLz0gVphSR5WFMh7kkIVBlw1oqpuCJoJd2XqKtx62/d2tHxGZ/pSih7B94bktGyGJLEFlQpalitMKfFr7jj2WjaRNcpqvcN12fqJWESQrUkNE36xsjEZP2Yr5ZlU3CgqUKclShTkSIFegn+kLRrR/ISHKW/YPZG1FotGuzVydwkxKbaSliU5Rdnd8vBvK1Jfj1oUlTENfWaWx0EcwpDgxAe7KNQGhDSY8lx6qRKgSjAkISSGrbx3hEJChIliPw7TYKzW4Euy/ZBvLr0RDuEmQQYmpK1ZP0gtRiUdRWmFJCmYIIeBZ/ohp+yLZ0gUtSDBKZCiiKce0gbLFysnuOPi93y/4K9fuOPi93y/4K0nuOPi93y/4I8vyEsh1ihv2nEr4tehryeAQhr9mHB1/8Dc0yUaJN1+1KO41WBo62zrbOts6gzqDOoM62zrbOts6gzqDOoM62zqDOoM6gzqDOoM62zrbOoM6gzqDOoMYHwo5YannB8hGUkoSX/BfWB4NUbV+jav0bV+jav0bV+jav0bV+jav0bV+jav0bV+jav0bV+jav0bV+jav0bV+jav0bV+jav0bV+jav0bV+jav0Iaws0aL/r3/2Q==;clipPath=inset(26% 29.67% 0% 35.67%);" vertex="1" parent="1">
          <mxGeometry x="1830" y="90" width="396.81016216216216" height="706" as="geometry" />
        </mxCell>
        <mxCell id="0z4CHhuE8rUwhNeHswg4-4" value="&lt;font style=&quot;font-size: 25px;&quot;&gt;База данных&lt;/font&gt;" style="shape=cylinder3;whiteSpace=wrap;html=1;boundedLbl=1;backgroundOutline=1;size=45.02716064453125;strokeWidth=3;" vertex="1" parent="1">
          <mxGeometry x="1870" y="-600" width="290" height="370" as="geometry" />
        </mxCell>
        <mxCell id="0z4CHhuE8rUwhNeHswg4-6" value="" style="endArrow=classic;html=1;rounded=0;exitX=-0.013;exitY=0.074;exitDx=0;exitDy=0;exitPerimeter=0;entryX=0;entryY=0;entryDx=0;entryDy=254.98641967773438;entryPerimeter=0;strokeWidth=3;" edge="1" parent="1" source="0z4CHhuE8rUwhNeHswg4-2" target="0z4CHhuE8rUwhNeHswg4-4">
          <mxGeometry width="50" height="50" relative="1" as="geometry">
            <mxPoint x="1410" y="350" as="sourcePoint" />
            <mxPoint x="1460" y="300" as="targetPoint" />
            <Array as="points">
              <mxPoint x="1560" y="142" />
              <mxPoint x="1560" y="-345" />
            </Array>
          </mxGeometry>
        </mxCell>
        <mxCell id="0z4CHhuE8rUwhNeHswg4-7" value="&lt;font style=&quot;font-size: 20px;&quot;&gt;Данные пользователя&lt;/font&gt;" style="edgeLabel;html=1;align=center;verticalAlign=middle;resizable=0;points=[];" vertex="1" connectable="0" parent="0z4CHhuE8rUwhNeHswg4-6">
          <mxGeometry x="-0.0972" y="-3" relative="1" as="geometry">
            <mxPoint x="117" y="193" as="offset" />
          </mxGeometry>
        </mxCell>
        <mxCell id="0z4CHhuE8rUwhNeHswg4-8" value="" style="endArrow=classic;html=1;rounded=0;entryX=1;entryY=0;entryDx=0;entryDy=254.98641967773438;entryPerimeter=0;exitX=1.002;exitY=0.078;exitDx=0;exitDy=0;exitPerimeter=0;strokeWidth=3;" edge="1" parent="1" source="0z4CHhuE8rUwhNeHswg4-2" target="0z4CHhuE8rUwhNeHswg4-4">
          <mxGeometry width="50" height="50" relative="1" as="geometry">
            <mxPoint x="2280" y="210" as="sourcePoint" />
            <mxPoint x="2659.02" y="-340" as="targetPoint" />
            <Array as="points">
              <mxPoint x="2620" y="140" />
              <mxPoint x="2620" y="-345" />
            </Array>
          </mxGeometry>
        </mxCell>
        <mxCell id="0z4CHhuE8rUwhNeHswg4-9" value="&lt;font style=&quot;font-size: 20px;&quot;&gt;Невалидные данные пользователя&lt;/font&gt;" style="edgeLabel;html=1;align=center;verticalAlign=middle;resizable=0;points=[];" vertex="1" connectable="0" parent="0z4CHhuE8rUwhNeHswg4-8">
          <mxGeometry x="-0.0972" y="-3" relative="1" as="geometry">
            <mxPoint x="-203" y="190" as="offset" />
          </mxGeometry>
        </mxCell>
        <mxCell id="0z4CHhuE8rUwhNeHswg4-10" value="" style="rounded=0;whiteSpace=wrap;html=1;strokeColor=none;" vertex="1" parent="1">
          <mxGeometry x="1810" y="700" width="120" height="60" as="geometry" />
        </mxCell>
        <mxCell id="0z4CHhuE8rUwhNeHswg4-11" value="" style="rounded=0;whiteSpace=wrap;html=1;strokeColor=none;" vertex="1" parent="1">
          <mxGeometry x="2140" y="700" width="120" height="60" as="geometry" />
        </mxCell>
      </root>
    </mxGraphModel>
  </diagram>
</mxfile>
